<?xml version="1.0" encoding="utf-8" standalone="no"?>
<!DOCTYPE svg PUBLIC "-//W3C//DTD SVG 1.1//EN"
  "http://www.w3.org/Graphics/SVG/1.1/DTD/svg11.dtd">
<!-- Created with matplotlib (http://matplotlib.org/) -->
<svg height="720pt" version="1.1" viewBox="0 0 720 720" width="720pt" xmlns="http://www.w3.org/2000/svg" xmlns:xlink="http://www.w3.org/1999/xlink">
 <defs>
  <style type="text/css">
*{stroke-linecap:butt;stroke-linejoin:round;}
  </style>
 </defs>
 <g id="figure_1">
  <g id="patch_1">
   <path d="M 0 720 
L 720 720 
L 720 0 
L 0 0 
z
" style="fill:#ffffff;"/>
  </g>
  <g id="axes_1">
   <g id="patch_2">
    <path d="M 369 117 
L 127.378912 535.5 
L 610.621088 535.5 
z
" style="fill:#ffffff;"/>
   </g>
   <g id="patch_3">
    <path clip-path="url(#pda6b3ee46b)" d="M 369 345.256043 
L 347.022924 408.688471 
L 379.982777 402.340909 
z
" style="fill:#0000ff;opacity:0.25;"/>
   </g>
   <g id="patch_4">
    <path clip-path="url(#pda6b3ee46b)" d="M 369 129.681818 
L 345.929164 409.319954 
L 381.811807 403.3969 
z
" style="fill:#ff0000;opacity:0.25;"/>
   </g>
   <g id="matplotlib.axis_1">
    <g id="xtick_1">
     <g id="line2d_1">
      <path clip-path="url(#pda6b3ee46b)" d="M 369 396 
L 369 117 
" style="fill:none;stroke:#b0b0b0;stroke-linecap:square;stroke-width:0.8;"/>
     </g>
     <g id="text_1">
      <!-- Weight -->
      <defs>
       <path d="M 3.328125 72.90625 
L 13.28125 72.90625 
L 28.609375 11.28125 
L 43.890625 72.90625 
L 54.984375 72.90625 
L 70.3125 11.28125 
L 85.59375 72.90625 
L 95.609375 72.90625 
L 77.296875 0 
L 64.890625 0 
L 49.515625 63.28125 
L 33.984375 0 
L 21.578125 0 
z
" id="DejaVuSans-57"/>
       <path d="M 56.203125 29.59375 
L 56.203125 25.203125 
L 14.890625 25.203125 
Q 15.484375 15.921875 20.484375 11.0625 
Q 25.484375 6.203125 34.421875 6.203125 
Q 39.59375 6.203125 44.453125 7.46875 
Q 49.3125 8.734375 54.109375 11.28125 
L 54.109375 2.78125 
Q 49.265625 0.734375 44.1875 -0.34375 
Q 39.109375 -1.421875 33.890625 -1.421875 
Q 20.796875 -1.421875 13.15625 6.1875 
Q 5.515625 13.8125 5.515625 26.8125 
Q 5.515625 40.234375 12.765625 48.109375 
Q 20.015625 56 32.328125 56 
Q 43.359375 56 49.78125 48.890625 
Q 56.203125 41.796875 56.203125 29.59375 
z
M 47.21875 32.234375 
Q 47.125 39.59375 43.09375 43.984375 
Q 39.0625 48.390625 32.421875 48.390625 
Q 24.90625 48.390625 20.390625 44.140625 
Q 15.875 39.890625 15.1875 32.171875 
z
" id="DejaVuSans-65"/>
       <path d="M 9.421875 54.6875 
L 18.40625 54.6875 
L 18.40625 0 
L 9.421875 0 
z
M 9.421875 75.984375 
L 18.40625 75.984375 
L 18.40625 64.59375 
L 9.421875 64.59375 
z
" id="DejaVuSans-69"/>
       <path d="M 45.40625 27.984375 
Q 45.40625 37.75 41.375 43.109375 
Q 37.359375 48.484375 30.078125 48.484375 
Q 22.859375 48.484375 18.828125 43.109375 
Q 14.796875 37.75 14.796875 27.984375 
Q 14.796875 18.265625 18.828125 12.890625 
Q 22.859375 7.515625 30.078125 7.515625 
Q 37.359375 7.515625 41.375 12.890625 
Q 45.40625 18.265625 45.40625 27.984375 
z
M 54.390625 6.78125 
Q 54.390625 -7.171875 48.1875 -13.984375 
Q 42 -20.796875 29.203125 -20.796875 
Q 24.46875 -20.796875 20.265625 -20.09375 
Q 16.0625 -19.390625 12.109375 -17.921875 
L 12.109375 -9.1875 
Q 16.0625 -11.328125 19.921875 -12.34375 
Q 23.78125 -13.375 27.78125 -13.375 
Q 36.625 -13.375 41.015625 -8.765625 
Q 45.40625 -4.15625 45.40625 5.171875 
L 45.40625 9.625 
Q 42.625 4.78125 38.28125 2.390625 
Q 33.9375 0 27.875 0 
Q 17.828125 0 11.671875 7.65625 
Q 5.515625 15.328125 5.515625 27.984375 
Q 5.515625 40.671875 11.671875 48.328125 
Q 17.828125 56 27.875 56 
Q 33.9375 56 38.28125 53.609375 
Q 42.625 51.21875 45.40625 46.390625 
L 45.40625 54.6875 
L 54.390625 54.6875 
z
" id="DejaVuSans-67"/>
       <path d="M 54.890625 33.015625 
L 54.890625 0 
L 45.90625 0 
L 45.90625 32.71875 
Q 45.90625 40.484375 42.875 44.328125 
Q 39.84375 48.1875 33.796875 48.1875 
Q 26.515625 48.1875 22.3125 43.546875 
Q 18.109375 38.921875 18.109375 30.90625 
L 18.109375 0 
L 9.078125 0 
L 9.078125 75.984375 
L 18.109375 75.984375 
L 18.109375 46.1875 
Q 21.34375 51.125 25.703125 53.5625 
Q 30.078125 56 35.796875 56 
Q 45.21875 56 50.046875 50.171875 
Q 54.890625 44.34375 54.890625 33.015625 
z
" id="DejaVuSans-68"/>
       <path d="M 18.3125 70.21875 
L 18.3125 54.6875 
L 36.8125 54.6875 
L 36.8125 47.703125 
L 18.3125 47.703125 
L 18.3125 18.015625 
Q 18.3125 11.328125 20.140625 9.421875 
Q 21.96875 7.515625 27.59375 7.515625 
L 36.8125 7.515625 
L 36.8125 0 
L 27.59375 0 
Q 17.1875 0 13.234375 3.875 
Q 9.28125 7.765625 9.28125 18.015625 
L 9.28125 47.703125 
L 2.6875 47.703125 
L 2.6875 54.6875 
L 9.28125 54.6875 
L 9.28125 70.21875 
z
" id="DejaVuSans-74"/>
      </defs>
      <g transform="translate(351.291406 91.859375)scale(0.1 -0.1)">
       <use xlink:href="#DejaVuSans-57"/>
       <use x="98.798828" xlink:href="#DejaVuSans-65"/>
       <use x="160.322266" xlink:href="#DejaVuSans-69"/>
       <use x="188.105469" xlink:href="#DejaVuSans-67"/>
       <use x="251.582031" xlink:href="#DejaVuSans-68"/>
       <use x="314.960938" xlink:href="#DejaVuSans-74"/>
      </g>
     </g>
    </g>
    <g id="xtick_2">
     <g id="line2d_2">
      <path clip-path="url(#pda6b3ee46b)" d="M 369 396 
L 127.378912 535.5 
" style="fill:none;stroke:#b0b0b0;stroke-linecap:square;stroke-width:0.8;"/>
     </g>
     <g id="text_2">
      <!-- Avg weight -->
      <defs>
       <path d="M 34.1875 63.1875 
L 20.796875 26.90625 
L 47.609375 26.90625 
z
M 28.609375 72.90625 
L 39.796875 72.90625 
L 67.578125 0 
L 57.328125 0 
L 50.6875 18.703125 
L 17.828125 18.703125 
L 11.1875 0 
L 0.78125 0 
z
" id="DejaVuSans-41"/>
       <path d="M 2.984375 54.6875 
L 12.5 54.6875 
L 29.59375 8.796875 
L 46.6875 54.6875 
L 56.203125 54.6875 
L 35.6875 0 
L 23.484375 0 
z
" id="DejaVuSans-76"/>
       <path id="DejaVuSans-20"/>
       <path d="M 4.203125 54.6875 
L 13.1875 54.6875 
L 24.421875 12.015625 
L 35.59375 54.6875 
L 46.1875 54.6875 
L 57.421875 12.015625 
L 68.609375 54.6875 
L 77.59375 54.6875 
L 63.28125 0 
L 52.6875 0 
L 40.921875 44.828125 
L 29.109375 0 
L 18.5 0 
z
" id="DejaVuSans-77"/>
      </defs>
      <g transform="translate(75.219929 552.209375)scale(0.1 -0.1)">
       <use xlink:href="#DejaVuSans-41"/>
       <use x="68.330078" xlink:href="#DejaVuSans-76"/>
       <use x="127.509766" xlink:href="#DejaVuSans-67"/>
       <use x="190.986328" xlink:href="#DejaVuSans-20"/>
       <use x="222.773438" xlink:href="#DejaVuSans-77"/>
       <use x="304.560547" xlink:href="#DejaVuSans-65"/>
       <use x="366.083984" xlink:href="#DejaVuSans-69"/>
       <use x="393.867188" xlink:href="#DejaVuSans-67"/>
       <use x="457.34375" xlink:href="#DejaVuSans-68"/>
       <use x="520.722656" xlink:href="#DejaVuSans-74"/>
      </g>
     </g>
    </g>
    <g id="xtick_3">
     <g id="line2d_3">
      <path clip-path="url(#pda6b3ee46b)" d="M 369 396 
L 610.621088 535.5 
" style="fill:none;stroke:#b0b0b0;stroke-linecap:square;stroke-width:0.8;"/>
     </g>
     <g id="text_3">
      <!-- NHYD -->
      <defs>
       <path d="M 9.8125 72.90625 
L 23.09375 72.90625 
L 55.421875 11.921875 
L 55.421875 72.90625 
L 64.984375 72.90625 
L 64.984375 0 
L 51.703125 0 
L 19.390625 60.984375 
L 19.390625 0 
L 9.8125 0 
z
" id="DejaVuSans-4e"/>
       <path d="M 9.8125 72.90625 
L 19.671875 72.90625 
L 19.671875 43.015625 
L 55.515625 43.015625 
L 55.515625 72.90625 
L 65.375 72.90625 
L 65.375 0 
L 55.515625 0 
L 55.515625 34.71875 
L 19.671875 34.71875 
L 19.671875 0 
L 9.8125 0 
z
" id="DejaVuSans-48"/>
       <path d="M -0.203125 72.90625 
L 10.40625 72.90625 
L 30.609375 42.921875 
L 50.6875 72.90625 
L 61.28125 72.90625 
L 35.5 34.71875 
L 35.5 0 
L 25.59375 0 
L 25.59375 34.71875 
z
" id="DejaVuSans-59"/>
       <path d="M 19.671875 64.796875 
L 19.671875 8.109375 
L 31.59375 8.109375 
Q 46.6875 8.109375 53.6875 14.9375 
Q 60.6875 21.78125 60.6875 36.53125 
Q 60.6875 51.171875 53.6875 57.984375 
Q 46.6875 64.796875 31.59375 64.796875 
z
M 9.8125 72.90625 
L 30.078125 72.90625 
Q 51.265625 72.90625 61.171875 64.09375 
Q 71.09375 55.28125 71.09375 36.53125 
Q 71.09375 17.671875 61.125 8.828125 
Q 51.171875 0 30.078125 0 
L 9.8125 0 
z
" id="DejaVuSans-44"/>
      </defs>
      <g transform="translate(620.378509 552.209375)scale(0.1 -0.1)">
       <use xlink:href="#DejaVuSans-4e"/>
       <use x="74.804688" xlink:href="#DejaVuSans-48"/>
       <use x="150" xlink:href="#DejaVuSans-59"/>
       <use x="211.083984" xlink:href="#DejaVuSans-44"/>
      </g>
     </g>
    </g>
   </g>
   <g id="matplotlib.axis_2">
    <g id="ytick_1">
     <g id="line2d_4">
      <path clip-path="url(#pda6b3ee46b)" d="M 369 374.870254 
L 366.79134 374.986005 
L 364.606879 375.33199 
L 362.470549 375.904417 
L 360.405758 376.697016 
L 358.435127 377.701103 
L 356.580247 378.905676 
L 354.86144 380.297539 
L 353.297539 381.86144 
L 351.905676 383.580247 
L 350.701103 385.435127 
L 349.697016 387.405758 
L 348.904417 389.470549 
L 348.33199 391.606879 
L 347.986005 393.79134 
L 347.870254 396 
L 347.986005 398.20866 
L 348.33199 400.393121 
L 348.904417 402.529451 
L 349.697016 404.594242 
L 350.701103 406.564873 
L 351.905676 408.419753 
L 353.297539 410.13856 
L 354.86144 411.702461 
L 356.580247 413.094324 
L 358.435127 414.298897 
L 360.405758 415.302984 
L 362.470549 416.095583 
L 364.606879 416.66801 
L 366.79134 417.013995 
L 369 417.129746 
L 371.20866 417.013995 
L 373.393121 416.66801 
L 375.529451 416.095583 
L 377.594242 415.302984 
L 379.564873 414.298897 
L 381.419753 413.094324 
L 383.13856 411.702461 
L 384.702461 410.13856 
L 386.094324 408.419753 
L 387.298897 406.564873 
L 388.302984 404.594242 
L 389.095583 402.529451 
L 389.66801 400.393121 
L 390.013995 398.20866 
L 390.129746 396 
L 390.013995 393.79134 
L 389.66801 391.606879 
L 389.095583 389.470549 
L 388.302984 387.405758 
L 387.298897 385.435127 
L 386.094324 383.580247 
L 384.702461 381.86144 
L 383.13856 380.297539 
L 381.419753 378.905676 
L 379.564873 377.701103 
L 377.594242 376.697016 
L 375.529451 375.904417 
L 373.393121 375.33199 
L 371.20866 374.986005 
L 369 374.870254 
L 369 374.870254 
" style="fill:none;stroke:#b0b0b0;stroke-linecap:square;stroke-width:0.8;"/>
     </g>
     <g id="text_4">
      <!-- 10 -->
      <defs>
       <path d="M 12.40625 8.296875 
L 28.515625 8.296875 
L 28.515625 63.921875 
L 10.984375 60.40625 
L 10.984375 69.390625 
L 28.421875 72.90625 
L 38.28125 72.90625 
L 38.28125 8.296875 
L 54.390625 8.296875 
L 54.390625 0 
L 12.40625 0 
z
" id="DejaVuSans-31"/>
       <path d="M 31.78125 66.40625 
Q 24.171875 66.40625 20.328125 58.90625 
Q 16.5 51.421875 16.5 36.375 
Q 16.5 21.390625 20.328125 13.890625 
Q 24.171875 6.390625 31.78125 6.390625 
Q 39.453125 6.390625 43.28125 13.890625 
Q 47.125 21.390625 47.125 36.375 
Q 47.125 51.421875 43.28125 58.90625 
Q 39.453125 66.40625 31.78125 66.40625 
z
M 31.78125 74.21875 
Q 44.046875 74.21875 50.515625 64.515625 
Q 56.984375 54.828125 56.984375 36.375 
Q 56.984375 17.96875 50.515625 8.265625 
Q 44.046875 -1.421875 31.78125 -1.421875 
Q 19.53125 -1.421875 13.0625 8.265625 
Q 6.59375 17.96875 6.59375 36.375 
Q 6.59375 54.828125 13.0625 64.515625 
Q 19.53125 74.21875 31.78125 74.21875 
z
" id="DejaVuSans-30"/>
      </defs>
      <g transform="translate(360.913996 374.398973)scale(0.1 -0.1)">
       <use xlink:href="#DejaVuSans-31"/>
       <use x="63.623047" xlink:href="#DejaVuSans-30"/>
      </g>
     </g>
    </g>
    <g id="ytick_2">
     <g id="line2d_5">
      <path clip-path="url(#pda6b3ee46b)" d="M 369 290.390975 
L 365.314298 290.455309 
L 361.633087 290.648233 
L 357.960851 290.969512 
L 354.302064 291.418755 
L 350.661185 291.995413 
L 347.042649 292.698785 
L 343.450864 293.528014 
L 339.890208 294.482089 
L 336.365016 295.559848 
L 332.879586 296.759978 
L 329.438163 298.081017 
L 326.04494 299.521355 
L 322.704051 301.079237 
L 319.419566 302.752765 
L 316.195487 304.539901 
L 313.035743 306.438467 
L 309.944183 308.44615 
L 306.924572 310.560504 
L 303.980592 312.778952 
L 301.115827 315.098793 
L 298.333769 317.517199 
L 295.637807 320.031225 
L 293.031225 322.637807 
L 290.517199 325.333769 
L 288.098793 328.115827 
L 285.778952 330.980592 
L 283.560504 333.924572 
L 281.44615 336.944183 
L 279.438467 340.035743 
L 277.539901 343.195487 
L 275.752765 346.419566 
L 274.079237 349.704051 
L 272.521355 353.04494 
L 271.081017 356.438163 
L 269.759978 359.879586 
L 268.559848 363.365016 
L 267.482089 366.890208 
L 266.528014 370.450864 
L 265.698785 374.042649 
L 264.995413 377.661185 
L 264.418755 381.302064 
L 263.969512 384.960851 
L 263.648233 388.633087 
L 263.455309 392.314298 
L 263.390975 396 
L 263.455309 399.685702 
L 263.648233 403.366913 
L 263.969512 407.039149 
L 264.418755 410.697936 
L 264.995413 414.338815 
L 265.698785 417.957351 
L 266.528014 421.549136 
L 267.482089 425.109792 
L 268.559848 428.634984 
L 269.759978 432.120414 
L 271.081017 435.561837 
L 272.521355 438.95506 
L 274.079237 442.295949 
L 275.752765 445.580434 
L 277.539901 448.804513 
L 279.438467 451.964257 
L 281.44615 455.055817 
L 283.560504 458.075428 
L 285.778952 461.019408 
L 288.098793 463.884173 
L 290.517199 466.666231 
L 293.031225 469.362193 
L 295.637807 471.968775 
L 298.333769 474.482801 
L 301.115827 476.901207 
L 303.980592 479.221048 
L 306.924572 481.439496 
L 309.944183 483.55385 
L 313.035743 485.561533 
L 316.195487 487.460099 
L 319.419566 489.247235 
L 322.704051 490.920763 
L 326.04494 492.478645 
L 329.438163 493.918983 
L 332.879586 495.240022 
L 336.365016 496.440152 
L 339.890208 497.517911 
L 343.450864 498.471986 
L 347.042649 499.301215 
L 350.661185 500.004587 
L 354.302064 500.581245 
L 357.960851 501.030488 
L 361.633087 501.351767 
L 365.314298 501.544691 
L 369 501.609025 
L 372.685702 501.544691 
L 376.366913 501.351767 
L 380.039149 501.030488 
L 383.697936 500.581245 
L 387.338815 500.004587 
L 390.957351 499.301215 
L 394.549136 498.471986 
L 398.109792 497.517911 
L 401.634984 496.440152 
L 405.120414 495.240022 
L 408.561837 493.918983 
L 411.95506 492.478645 
L 415.295949 490.920763 
L 418.580434 489.247235 
L 421.804513 487.460099 
L 424.964257 485.561533 
L 428.055817 483.55385 
L 431.075428 481.439496 
L 434.019408 479.221048 
L 436.884173 476.901207 
L 439.666231 474.482801 
L 442.362193 471.968775 
L 444.968775 469.362193 
L 447.482801 466.666231 
L 449.901207 463.884173 
L 452.221048 461.019408 
L 454.439496 458.075428 
L 456.55385 455.055817 
L 458.561533 451.964257 
L 460.460099 448.804513 
L 462.247235 445.580434 
L 463.920763 442.295949 
L 465.478645 438.95506 
L 466.918983 435.561837 
L 468.240022 432.120414 
L 469.440152 428.634984 
L 470.517911 425.109792 
L 471.471986 421.549136 
L 472.301215 417.957351 
L 473.004587 414.338815 
L 473.581245 410.697936 
L 474.030488 407.039149 
L 474.351767 403.366913 
L 474.544691 399.685702 
L 474.609025 396 
L 474.544691 392.314298 
L 474.351767 388.633087 
L 474.030488 384.960851 
L 473.581245 381.302064 
L 473.004587 377.661185 
L 472.301215 374.042649 
L 471.471986 370.450864 
L 470.517911 366.890208 
L 469.440152 363.365016 
L 468.240022 359.879586 
L 466.918983 356.438163 
L 465.478645 353.04494 
L 463.920763 349.704051 
L 462.247235 346.419566 
L 460.460099 343.195487 
L 458.561533 340.035743 
L 456.55385 336.944183 
L 454.439496 333.924572 
L 452.221048 330.980592 
L 449.901207 328.115827 
L 447.482801 325.333769 
L 444.968775 322.637807 
L 442.362193 320.031225 
L 439.666231 317.517199 
L 436.884173 315.098793 
L 434.019408 312.778952 
L 431.075428 310.560504 
L 428.055817 308.44615 
L 424.964257 306.438467 
L 421.804513 304.539901 
L 418.580434 302.752765 
L 415.295949 301.079237 
L 411.95506 299.521355 
L 408.561837 298.081017 
L 405.120414 296.759978 
L 401.634984 295.559848 
L 398.109792 294.482089 
L 394.549136 293.528014 
L 390.957351 292.698785 
L 387.338815 291.995413 
L 383.697936 291.418755 
L 380.039149 290.969512 
L 376.366913 290.648233 
L 372.685702 290.455309 
L 369 290.390975 
L 369 290.390975 
" style="fill:none;stroke:#b0b0b0;stroke-linecap:square;stroke-width:0.8;"/>
     </g>
     <g id="text_5">
      <!-- 50 -->
      <defs>
       <path d="M 10.796875 72.90625 
L 49.515625 72.90625 
L 49.515625 64.59375 
L 19.828125 64.59375 
L 19.828125 46.734375 
Q 21.96875 47.46875 24.109375 47.828125 
Q 26.265625 48.1875 28.421875 48.1875 
Q 40.625 48.1875 47.75 41.5 
Q 54.890625 34.8125 54.890625 23.390625 
Q 54.890625 11.625 47.5625 5.09375 
Q 40.234375 -1.421875 26.90625 -1.421875 
Q 22.3125 -1.421875 17.546875 -0.640625 
Q 12.796875 0.140625 7.71875 1.703125 
L 7.71875 11.625 
Q 12.109375 9.234375 16.796875 8.0625 
Q 21.484375 6.890625 26.703125 6.890625 
Q 35.15625 6.890625 40.078125 11.328125 
Q 45.015625 15.765625 45.015625 23.390625 
Q 45.015625 31 40.078125 35.4375 
Q 35.15625 39.890625 26.703125 39.890625 
Q 22.75 39.890625 18.8125 39.015625 
Q 14.890625 38.140625 10.796875 36.28125 
z
" id="DejaVuSans-35"/>
      </defs>
      <g transform="translate(328.585176 296.350296)scale(0.1 -0.1)">
       <use xlink:href="#DejaVuSans-35"/>
       <use x="63.623047" xlink:href="#DejaVuSans-30"/>
      </g>
     </g>
    </g>
    <g id="ytick_3">
     <g id="line2d_6">
      <path clip-path="url(#pda6b3ee46b)" d="M 369 184.791876 
L 361.628943 184.920538 
L 354.266866 185.306368 
L 346.922739 185.948896 
L 339.60551 186.847339 
L 332.324094 188.000602 
L 325.087362 189.40728 
L 317.90413 191.06566 
L 310.783151 192.97372 
L 303.7331 195.129137 
L 296.762567 197.529284 
L 289.880044 200.171237 
L 283.093917 203.051778 
L 276.412452 206.167396 
L 269.843792 209.514295 
L 263.395938 213.088399 
L 257.076746 216.885352 
L 250.893916 220.900529 
L 244.854979 225.129038 
L 238.967295 229.565727 
L 233.238035 234.20519 
L 227.67418 239.041775 
L 222.282509 244.06959 
L 217.06959 249.282509 
L 212.041775 254.67418 
L 207.20519 260.238035 
L 202.565727 265.967295 
L 198.129038 271.854979 
L 193.900529 277.893916 
L 189.885352 284.076746 
L 186.088399 290.395938 
L 182.514295 296.843792 
L 179.167396 303.412452 
L 176.051778 310.093917 
L 173.171237 316.880044 
L 170.529284 323.762567 
L 168.129137 330.7331 
L 165.97372 337.783151 
L 164.06566 344.90413 
L 162.40728 352.087362 
L 161.000602 359.324094 
L 159.847339 366.60551 
L 158.948896 373.922739 
L 158.306368 381.266866 
L 157.920538 388.628943 
L 157.791876 396 
L 157.920538 403.371057 
L 158.306368 410.733134 
L 158.948896 418.077261 
L 159.847339 425.39449 
L 161.000602 432.675906 
L 162.40728 439.912638 
L 164.06566 447.09587 
L 165.97372 454.216849 
L 168.129137 461.2669 
L 170.529284 468.237433 
L 173.171237 475.119956 
L 176.051778 481.906083 
L 179.167396 488.587548 
L 182.514295 495.156208 
L 186.088399 501.604062 
L 189.885352 507.923254 
L 193.900529 514.106084 
L 198.129038 520.145021 
L 202.565727 526.032705 
L 207.20519 531.761965 
L 212.041775 537.32582 
L 217.06959 542.717491 
L 222.282509 547.93041 
L 227.67418 552.958225 
L 233.238035 557.79481 
L 238.967295 562.434273 
L 244.854979 566.870962 
L 250.893916 571.099471 
L 257.076746 575.114648 
L 263.395938 578.911601 
L 269.843792 582.485705 
L 276.412452 585.832604 
L 283.093917 588.948222 
L 289.880044 591.828763 
L 296.762567 594.470716 
L 303.7331 596.870863 
L 310.783151 599.02628 
L 317.90413 600.93434 
L 325.087362 602.59272 
L 332.324094 603.999398 
L 339.60551 605.152661 
L 346.922739 606.051104 
L 354.266866 606.693632 
L 361.628943 607.079462 
L 369 607.208124 
L 376.371057 607.079462 
L 383.733134 606.693632 
L 391.077261 606.051104 
L 398.39449 605.152661 
L 405.675906 603.999398 
L 412.912638 602.59272 
L 420.09587 600.93434 
L 427.216849 599.02628 
L 434.2669 596.870863 
L 441.237433 594.470716 
L 448.119956 591.828763 
L 454.906083 588.948222 
L 461.587548 585.832604 
L 468.156208 582.485705 
L 474.604062 578.911601 
L 480.923254 575.114648 
L 487.106084 571.099471 
L 493.145021 566.870962 
L 499.032705 562.434273 
L 504.761965 557.79481 
L 510.32582 552.958225 
L 515.717491 547.93041 
L 520.93041 542.717491 
L 525.958225 537.32582 
L 530.79481 531.761965 
L 535.434273 526.032705 
L 539.870962 520.145021 
L 544.099471 514.106084 
L 548.114648 507.923254 
L 551.911601 501.604062 
L 555.485705 495.156208 
L 558.832604 488.587548 
L 561.948222 481.906083 
L 564.828763 475.119956 
L 567.470716 468.237433 
L 569.870863 461.2669 
L 572.02628 454.216849 
L 573.93434 447.09587 
L 575.59272 439.912638 
L 576.999398 432.675906 
L 578.152661 425.39449 
L 579.051104 418.077261 
L 579.693632 410.733134 
L 580.079462 403.371057 
L 580.208124 396 
L 580.079462 388.628943 
L 579.693632 381.266866 
L 579.051104 373.922739 
L 578.152661 366.60551 
L 576.999398 359.324094 
L 575.59272 352.087362 
L 573.93434 344.90413 
L 572.02628 337.783151 
L 569.870863 330.7331 
L 567.470716 323.762567 
L 564.828763 316.880044 
L 561.948222 310.093917 
L 558.832604 303.412452 
L 555.485705 296.843792 
L 551.911601 290.395938 
L 548.114648 284.076746 
L 544.099471 277.893916 
L 539.870962 271.854979 
L 535.434273 265.967295 
L 530.79481 260.238035 
L 525.958225 254.67418 
L 520.93041 249.282509 
L 515.717491 244.06959 
L 510.32582 239.041775 
L 504.761965 234.20519 
L 499.032705 229.565727 
L 493.145021 225.129038 
L 487.106084 220.900529 
L 480.923254 216.885352 
L 474.604062 213.088399 
L 468.156208 209.514295 
L 461.587548 206.167396 
L 454.906083 203.051778 
L 448.119956 200.171237 
L 441.237433 197.529284 
L 434.2669 195.129137 
L 427.216849 192.97372 
L 420.09587 191.06566 
L 412.912638 189.40728 
L 405.675906 188.000602 
L 398.39449 186.847339 
L 391.077261 185.948896 
L 383.733134 185.306368 
L 376.371057 184.920538 
L 369 184.791876 
L 369 184.791876 
" style="fill:none;stroke:#b0b0b0;stroke-linecap:square;stroke-width:0.8;"/>
     </g>
     <g id="text_6">
      <!-- 100 -->
      <g transform="translate(288.17415 198.78945)scale(0.1 -0.1)">
       <use xlink:href="#DejaVuSans-31"/>
       <use x="63.623047" xlink:href="#DejaVuSans-30"/>
       <use x="127.246094" xlink:href="#DejaVuSans-30"/>
      </g>
     </g>
    </g>
   </g>
   <g id="line2d_7">
    <path clip-path="url(#pda6b3ee46b)" d="M 369 345.256043 
L 347.022924 408.688471 
L 379.982777 402.340909 
L 369 345.256043 
" style="fill:none;stroke:#0000ff;stroke-linecap:square;stroke-width:1.5;"/>
   </g>
   <g id="line2d_8">
    <path clip-path="url(#pda6b3ee46b)" d="M 369 129.681818 
L 345.929164 409.319954 
L 381.811807 403.3969 
L 369 129.681818 
" style="fill:none;stroke:#ff0000;stroke-linecap:square;stroke-width:1.5;"/>
   </g>
   <g id="patch_5">
    <path d="M 369 117 
L 127.378912 535.5 
L 610.621088 535.5 
L 369 117 
" style="fill:none;stroke:#000000;stroke-linecap:square;stroke-linejoin:miter;stroke-width:0.8;"/>
   </g>
   <g id="text_7">
    <!-- base -->
    <defs>
     <path d="M 37.5 11.28125 
Q 43.109375 11.28125 46.0625 15.375 
Q 49.03125 19.484375 49.03125 27.296875 
Q 49.03125 35.109375 46.0625 39.203125 
Q 43.109375 43.3125 37.5 43.3125 
Q 31.890625 43.3125 28.875 39.1875 
Q 25.875 35.0625 25.875 27.296875 
Q 25.875 19.53125 28.875 15.40625 
Q 31.890625 11.28125 37.5 11.28125 
z
M 25.875 46.6875 
Q 29.5 51.46875 33.890625 53.734375 
Q 38.28125 56 44 56 
Q 54.109375 56 60.59375 47.96875 
Q 67.09375 39.9375 67.09375 27.296875 
Q 67.09375 14.65625 60.59375 6.609375 
Q 54.109375 -1.421875 44 -1.421875 
Q 38.28125 -1.421875 33.890625 0.84375 
Q 29.5 3.125 25.875 7.90625 
L 25.875 0 
L 8.40625 0 
L 8.40625 75.984375 
L 25.875 75.984375 
z
" id="DejaVuSans-Bold-62"/>
     <path d="M 32.90625 24.609375 
Q 27.4375 24.609375 24.671875 22.75 
Q 21.921875 20.90625 21.921875 17.28125 
Q 21.921875 13.96875 24.140625 12.078125 
Q 26.375 10.203125 30.328125 10.203125 
Q 35.25 10.203125 38.625 13.734375 
Q 42 17.28125 42 22.609375 
L 42 24.609375 
z
M 59.625 31.203125 
L 59.625 0 
L 42 0 
L 42 8.109375 
Q 38.484375 3.125 34.078125 0.84375 
Q 29.6875 -1.421875 23.390625 -1.421875 
Q 14.890625 -1.421875 9.59375 3.53125 
Q 4.296875 8.5 4.296875 16.40625 
Q 4.296875 26.03125 10.90625 30.515625 
Q 17.53125 35.015625 31.6875 35.015625 
L 42 35.015625 
L 42 36.375 
Q 42 40.53125 38.71875 42.453125 
Q 35.453125 44.390625 28.515625 44.390625 
Q 22.90625 44.390625 18.0625 43.265625 
Q 13.234375 42.140625 9.078125 39.890625 
L 9.078125 53.21875 
Q 14.703125 54.59375 20.359375 55.296875 
Q 26.03125 56 31.6875 56 
Q 46.484375 56 53.046875 50.171875 
Q 59.625 44.34375 59.625 31.203125 
z
" id="DejaVuSans-Bold-61"/>
     <path d="M 51.125 52.984375 
L 51.125 39.703125 
Q 45.515625 42.046875 40.28125 43.21875 
Q 35.0625 44.390625 30.421875 44.390625 
Q 25.4375 44.390625 23.015625 43.140625 
Q 20.609375 41.890625 20.609375 39.3125 
Q 20.609375 37.203125 22.4375 36.078125 
Q 24.265625 34.96875 29 34.421875 
L 32.078125 33.984375 
Q 45.515625 32.28125 50.140625 28.375 
Q 54.78125 24.46875 54.78125 16.109375 
Q 54.78125 7.375 48.328125 2.96875 
Q 41.890625 -1.421875 29.109375 -1.421875 
Q 23.6875 -1.421875 17.890625 -0.5625 
Q 12.109375 0.296875 6 2 
L 6 15.28125 
Q 11.234375 12.75 16.71875 11.46875 
Q 22.21875 10.203125 27.875 10.203125 
Q 33.015625 10.203125 35.59375 11.609375 
Q 38.1875 13.03125 38.1875 15.828125 
Q 38.1875 18.171875 36.40625 19.3125 
Q 34.625 20.453125 29.296875 21.09375 
L 26.21875 21.484375 
Q 14.546875 22.953125 9.859375 26.90625 
Q 5.171875 30.859375 5.171875 38.921875 
Q 5.171875 47.609375 11.125 51.796875 
Q 17.09375 56 29.390625 56 
Q 34.234375 56 39.546875 55.265625 
Q 44.875 54.546875 51.125 52.984375 
z
" id="DejaVuSans-Bold-73"/>
     <path d="M 62.984375 27.484375 
L 62.984375 22.515625 
L 22.125 22.515625 
Q 22.75 16.359375 26.5625 13.28125 
Q 30.375 10.203125 37.203125 10.203125 
Q 42.71875 10.203125 48.5 11.84375 
Q 54.296875 13.484375 60.40625 16.796875 
L 60.40625 3.328125 
Q 54.203125 0.984375 48 -0.21875 
Q 41.796875 -1.421875 35.59375 -1.421875 
Q 20.75 -1.421875 12.515625 6.125 
Q 4.296875 13.671875 4.296875 27.296875 
Q 4.296875 40.671875 12.375 48.328125 
Q 20.453125 56 34.625 56 
Q 47.515625 56 55.25 48.234375 
Q 62.984375 40.484375 62.984375 27.484375 
z
M 45.015625 33.296875 
Q 45.015625 38.28125 42.109375 41.328125 
Q 39.203125 44.390625 34.515625 44.390625 
Q 29.4375 44.390625 26.265625 41.53125 
Q 23.09375 38.671875 22.3125 33.296875 
z
" id="DejaVuSans-Bold-65"/>
    </defs>
    <g transform="translate(355.679688 57.959375)scale(0.1 -0.1)">
     <use xlink:href="#DejaVuSans-Bold-62"/>
     <use x="71.582031" xlink:href="#DejaVuSans-Bold-61"/>
     <use x="139.0625" xlink:href="#DejaVuSans-Bold-73"/>
     <use x="198.583984" xlink:href="#DejaVuSans-Bold-65"/>
    </g>
   </g>
   <g id="legend_1">
    <g id="patch_6">
     <path d="M 594.6 144.9 
L 742.460625 144.9 
Q 744.860625 144.9 744.860625 142.5 
L 744.860625 113.2725 
Q 744.860625 110.8725 742.460625 110.8725 
L 594.6 110.8725 
Q 592.2 110.8725 592.2 113.2725 
L 592.2 142.5 
Q 592.2 144.9 594.6 144.9 
z
" style="fill:#ffffff;opacity:0.8;stroke:#cccccc;stroke-linejoin:miter;"/>
    </g>
    <g id="line2d_9">
     <path d="M 597 120.590625 
L 621 120.590625 
" style="fill:none;stroke:#0000ff;stroke-linecap:square;stroke-width:1.5;"/>
    </g>
    <g id="line2d_10"/>
    <g id="text_8">
     <!-- CC -->
     <defs>
      <path d="M 64.40625 67.28125 
L 64.40625 56.890625 
Q 59.421875 61.53125 53.78125 63.8125 
Q 48.140625 66.109375 41.796875 66.109375 
Q 29.296875 66.109375 22.65625 58.46875 
Q 16.015625 50.828125 16.015625 36.375 
Q 16.015625 21.96875 22.65625 14.328125 
Q 29.296875 6.6875 41.796875 6.6875 
Q 48.140625 6.6875 53.78125 8.984375 
Q 59.421875 11.28125 64.40625 15.921875 
L 64.40625 5.609375 
Q 59.234375 2.09375 53.4375 0.328125 
Q 47.65625 -1.421875 41.21875 -1.421875 
Q 24.65625 -1.421875 15.125 8.703125 
Q 5.609375 18.84375 5.609375 36.375 
Q 5.609375 53.953125 15.125 64.078125 
Q 24.65625 74.21875 41.21875 74.21875 
Q 47.75 74.21875 53.53125 72.484375 
Q 59.328125 70.75 64.40625 67.28125 
z
" id="DejaVuSans-43"/>
     </defs>
     <g transform="translate(630.6 124.790625)scale(0.12 -0.12)">
      <use xlink:href="#DejaVuSans-43"/>
      <use x="69.824219" xlink:href="#DejaVuSans-43"/>
     </g>
    </g>
    <g id="line2d_11">
     <path d="M 597 133.404375 
L 621 133.404375 
" style="fill:none;stroke:#ff0000;stroke-linecap:square;stroke-width:1.5;"/>
    </g>
    <g id="line2d_12"/>
    <g id="text_9">
     <!-- COc(cc1)ccc1C#N -->
     <defs>
      <path d="M 39.40625 66.21875 
Q 28.65625 66.21875 22.328125 58.203125 
Q 16.015625 50.203125 16.015625 36.375 
Q 16.015625 22.609375 22.328125 14.59375 
Q 28.65625 6.59375 39.40625 6.59375 
Q 50.140625 6.59375 56.421875 14.59375 
Q 62.703125 22.609375 62.703125 36.375 
Q 62.703125 50.203125 56.421875 58.203125 
Q 50.140625 66.21875 39.40625 66.21875 
z
M 39.40625 74.21875 
Q 54.734375 74.21875 63.90625 63.9375 
Q 73.09375 53.65625 73.09375 36.375 
Q 73.09375 19.140625 63.90625 8.859375 
Q 54.734375 -1.421875 39.40625 -1.421875 
Q 24.03125 -1.421875 14.8125 8.828125 
Q 5.609375 19.09375 5.609375 36.375 
Q 5.609375 53.65625 14.8125 63.9375 
Q 24.03125 74.21875 39.40625 74.21875 
z
" id="DejaVuSans-4f"/>
      <path d="M 48.78125 52.59375 
L 48.78125 44.1875 
Q 44.96875 46.296875 41.140625 47.34375 
Q 37.3125 48.390625 33.40625 48.390625 
Q 24.65625 48.390625 19.8125 42.84375 
Q 14.984375 37.3125 14.984375 27.296875 
Q 14.984375 17.28125 19.8125 11.734375 
Q 24.65625 6.203125 33.40625 6.203125 
Q 37.3125 6.203125 41.140625 7.25 
Q 44.96875 8.296875 48.78125 10.40625 
L 48.78125 2.09375 
Q 45.015625 0.34375 40.984375 -0.53125 
Q 36.96875 -1.421875 32.421875 -1.421875 
Q 20.0625 -1.421875 12.78125 6.34375 
Q 5.515625 14.109375 5.515625 27.296875 
Q 5.515625 40.671875 12.859375 48.328125 
Q 20.21875 56 33.015625 56 
Q 37.15625 56 41.109375 55.140625 
Q 45.0625 54.296875 48.78125 52.59375 
z
" id="DejaVuSans-63"/>
      <path d="M 31 75.875 
Q 24.46875 64.65625 21.28125 53.65625 
Q 18.109375 42.671875 18.109375 31.390625 
Q 18.109375 20.125 21.3125 9.0625 
Q 24.515625 -2 31 -13.1875 
L 23.1875 -13.1875 
Q 15.875 -1.703125 12.234375 9.375 
Q 8.59375 20.453125 8.59375 31.390625 
Q 8.59375 42.28125 12.203125 53.3125 
Q 15.828125 64.359375 23.1875 75.875 
z
" id="DejaVuSans-28"/>
      <path d="M 8.015625 75.875 
L 15.828125 75.875 
Q 23.140625 64.359375 26.78125 53.3125 
Q 30.421875 42.28125 30.421875 31.390625 
Q 30.421875 20.453125 26.78125 9.375 
Q 23.140625 -1.703125 15.828125 -13.1875 
L 8.015625 -13.1875 
Q 14.5 -2 17.703125 9.0625 
Q 20.90625 20.125 20.90625 31.390625 
Q 20.90625 42.671875 17.703125 53.65625 
Q 14.5 64.65625 8.015625 75.875 
z
" id="DejaVuSans-29"/>
      <path d="M 51.125 44 
L 36.921875 44 
L 32.8125 27.6875 
L 47.125 27.6875 
z
M 43.796875 71.78125 
L 38.71875 51.515625 
L 52.984375 51.515625 
L 58.109375 71.78125 
L 65.921875 71.78125 
L 60.890625 51.515625 
L 76.125 51.515625 
L 76.125 44 
L 58.984375 44 
L 54.984375 27.6875 
L 70.515625 27.6875 
L 70.515625 20.21875 
L 53.078125 20.21875 
L 48 0 
L 40.1875 0 
L 45.21875 20.21875 
L 30.90625 20.21875 
L 25.875 0 
L 18.015625 0 
L 23.09375 20.21875 
L 7.71875 20.21875 
L 7.71875 27.6875 
L 24.90625 27.6875 
L 29 44 
L 13.28125 44 
L 13.28125 51.515625 
L 30.90625 51.515625 
L 35.890625 71.78125 
z
" id="DejaVuSans-23"/>
     </defs>
     <g transform="translate(630.6 137.604375)scale(0.12 -0.12)">
      <use xlink:href="#DejaVuSans-43"/>
      <use x="69.824219" xlink:href="#DejaVuSans-4f"/>
      <use x="148.535156" xlink:href="#DejaVuSans-63"/>
      <use x="203.515625" xlink:href="#DejaVuSans-28"/>
      <use x="242.529297" xlink:href="#DejaVuSans-63"/>
      <use x="297.509766" xlink:href="#DejaVuSans-63"/>
      <use x="352.490234" xlink:href="#DejaVuSans-31"/>
      <use x="416.113281" xlink:href="#DejaVuSans-29"/>
      <use x="455.126953" xlink:href="#DejaVuSans-63"/>
      <use x="510.107422" xlink:href="#DejaVuSans-63"/>
      <use x="565.087891" xlink:href="#DejaVuSans-63"/>
      <use x="620.068359" xlink:href="#DejaVuSans-31"/>
      <use x="683.691406" xlink:href="#DejaVuSans-43"/>
      <use x="753.515625" xlink:href="#DejaVuSans-23"/>
      <use x="837.304688" xlink:href="#DejaVuSans-4e"/>
     </g>
    </g>
   </g>
  </g>
 </g>
 <defs>
  <clipPath id="pda6b3ee46b">
   <path d="M 369 117 
L 127.378912 535.5 
L 610.621088 535.5 
z
"/>
  </clipPath>
 </defs>
</svg>
