<?xml version="1.0" encoding="utf-8" standalone="no"?>
<!DOCTYPE svg PUBLIC "-//W3C//DTD SVG 1.1//EN"
  "http://www.w3.org/Graphics/SVG/1.1/DTD/svg11.dtd">
<!-- Created with matplotlib (http://matplotlib.org/) -->
<svg height="720pt" version="1.1" viewBox="0 0 720 720" width="720pt" xmlns="http://www.w3.org/2000/svg" xmlns:xlink="http://www.w3.org/1999/xlink">
 <defs>
  <style type="text/css">
*{stroke-linecap:butt;stroke-linejoin:round;}
  </style>
 </defs>
 <g id="figure_1">
  <g id="patch_1">
   <path d="M 0 720 
L 720 720 
L 720 0 
L 0 0 
z
" style="fill:#ffffff;"/>
  </g>
  <g id="axes_1">
   <g id="patch_2">
    <path d="M 369 117 
L 127.378912 535.5 
L 610.621088 535.5 
z
" style="fill:#ffffff;"/>
   </g>
   <g id="patch_3">
    <path clip-path="url(#p906ff7c4f5)" d="M 369 129.681818 
L 347.672051 408.313697 
L 379.982777 402.340909 
z
" style="fill:#0000ff;opacity:0.25;"/>
   </g>
   <g id="matplotlib.axis_1">
    <g id="xtick_1">
     <g id="line2d_1">
      <path clip-path="url(#p906ff7c4f5)" d="M 369 396 
L 369 117 
" style="fill:none;stroke:#b0b0b0;stroke-linecap:square;stroke-width:0.8;"/>
     </g>
     <g id="text_1">
      <!-- Weight -->
      <defs>
       <path d="M 3.328125 72.90625 
L 13.28125 72.90625 
L 28.609375 11.28125 
L 43.890625 72.90625 
L 54.984375 72.90625 
L 70.3125 11.28125 
L 85.59375 72.90625 
L 95.609375 72.90625 
L 77.296875 0 
L 64.890625 0 
L 49.515625 63.28125 
L 33.984375 0 
L 21.578125 0 
z
" id="DejaVuSans-57"/>
       <path d="M 56.203125 29.59375 
L 56.203125 25.203125 
L 14.890625 25.203125 
Q 15.484375 15.921875 20.484375 11.0625 
Q 25.484375 6.203125 34.421875 6.203125 
Q 39.59375 6.203125 44.453125 7.46875 
Q 49.3125 8.734375 54.109375 11.28125 
L 54.109375 2.78125 
Q 49.265625 0.734375 44.1875 -0.34375 
Q 39.109375 -1.421875 33.890625 -1.421875 
Q 20.796875 -1.421875 13.15625 6.1875 
Q 5.515625 13.8125 5.515625 26.8125 
Q 5.515625 40.234375 12.765625 48.109375 
Q 20.015625 56 32.328125 56 
Q 43.359375 56 49.78125 48.890625 
Q 56.203125 41.796875 56.203125 29.59375 
z
M 47.21875 32.234375 
Q 47.125 39.59375 43.09375 43.984375 
Q 39.0625 48.390625 32.421875 48.390625 
Q 24.90625 48.390625 20.390625 44.140625 
Q 15.875 39.890625 15.1875 32.171875 
z
" id="DejaVuSans-65"/>
       <path d="M 9.421875 54.6875 
L 18.40625 54.6875 
L 18.40625 0 
L 9.421875 0 
z
M 9.421875 75.984375 
L 18.40625 75.984375 
L 18.40625 64.59375 
L 9.421875 64.59375 
z
" id="DejaVuSans-69"/>
       <path d="M 45.40625 27.984375 
Q 45.40625 37.75 41.375 43.109375 
Q 37.359375 48.484375 30.078125 48.484375 
Q 22.859375 48.484375 18.828125 43.109375 
Q 14.796875 37.75 14.796875 27.984375 
Q 14.796875 18.265625 18.828125 12.890625 
Q 22.859375 7.515625 30.078125 7.515625 
Q 37.359375 7.515625 41.375 12.890625 
Q 45.40625 18.265625 45.40625 27.984375 
z
M 54.390625 6.78125 
Q 54.390625 -7.171875 48.1875 -13.984375 
Q 42 -20.796875 29.203125 -20.796875 
Q 24.46875 -20.796875 20.265625 -20.09375 
Q 16.0625 -19.390625 12.109375 -17.921875 
L 12.109375 -9.1875 
Q 16.0625 -11.328125 19.921875 -12.34375 
Q 23.78125 -13.375 27.78125 -13.375 
Q 36.625 -13.375 41.015625 -8.765625 
Q 45.40625 -4.15625 45.40625 5.171875 
L 45.40625 9.625 
Q 42.625 4.78125 38.28125 2.390625 
Q 33.9375 0 27.875 0 
Q 17.828125 0 11.671875 7.65625 
Q 5.515625 15.328125 5.515625 27.984375 
Q 5.515625 40.671875 11.671875 48.328125 
Q 17.828125 56 27.875 56 
Q 33.9375 56 38.28125 53.609375 
Q 42.625 51.21875 45.40625 46.390625 
L 45.40625 54.6875 
L 54.390625 54.6875 
z
" id="DejaVuSans-67"/>
       <path d="M 54.890625 33.015625 
L 54.890625 0 
L 45.90625 0 
L 45.90625 32.71875 
Q 45.90625 40.484375 42.875 44.328125 
Q 39.84375 48.1875 33.796875 48.1875 
Q 26.515625 48.1875 22.3125 43.546875 
Q 18.109375 38.921875 18.109375 30.90625 
L 18.109375 0 
L 9.078125 0 
L 9.078125 75.984375 
L 18.109375 75.984375 
L 18.109375 46.1875 
Q 21.34375 51.125 25.703125 53.5625 
Q 30.078125 56 35.796875 56 
Q 45.21875 56 50.046875 50.171875 
Q 54.890625 44.34375 54.890625 33.015625 
z
" id="DejaVuSans-68"/>
       <path d="M 18.3125 70.21875 
L 18.3125 54.6875 
L 36.8125 54.6875 
L 36.8125 47.703125 
L 18.3125 47.703125 
L 18.3125 18.015625 
Q 18.3125 11.328125 20.140625 9.421875 
Q 21.96875 7.515625 27.59375 7.515625 
L 36.8125 7.515625 
L 36.8125 0 
L 27.59375 0 
Q 17.1875 0 13.234375 3.875 
Q 9.28125 7.765625 9.28125 18.015625 
L 9.28125 47.703125 
L 2.6875 47.703125 
L 2.6875 54.6875 
L 9.28125 54.6875 
L 9.28125 70.21875 
z
" id="DejaVuSans-74"/>
      </defs>
      <g transform="translate(351.291406 91.859375)scale(0.1 -0.1)">
       <use xlink:href="#DejaVuSans-57"/>
       <use x="98.798828" xlink:href="#DejaVuSans-65"/>
       <use x="160.322266" xlink:href="#DejaVuSans-69"/>
       <use x="188.105469" xlink:href="#DejaVuSans-67"/>
       <use x="251.582031" xlink:href="#DejaVuSans-68"/>
       <use x="314.960938" xlink:href="#DejaVuSans-74"/>
      </g>
     </g>
    </g>
    <g id="xtick_2">
     <g id="line2d_2">
      <path clip-path="url(#p906ff7c4f5)" d="M 369 396 
L 127.378912 535.5 
" style="fill:none;stroke:#b0b0b0;stroke-linecap:square;stroke-width:0.8;"/>
     </g>
     <g id="text_2">
      <!-- Avg weight -->
      <defs>
       <path d="M 34.1875 63.1875 
L 20.796875 26.90625 
L 47.609375 26.90625 
z
M 28.609375 72.90625 
L 39.796875 72.90625 
L 67.578125 0 
L 57.328125 0 
L 50.6875 18.703125 
L 17.828125 18.703125 
L 11.1875 0 
L 0.78125 0 
z
" id="DejaVuSans-41"/>
       <path d="M 2.984375 54.6875 
L 12.5 54.6875 
L 29.59375 8.796875 
L 46.6875 54.6875 
L 56.203125 54.6875 
L 35.6875 0 
L 23.484375 0 
z
" id="DejaVuSans-76"/>
       <path id="DejaVuSans-20"/>
       <path d="M 4.203125 54.6875 
L 13.1875 54.6875 
L 24.421875 12.015625 
L 35.59375 54.6875 
L 46.1875 54.6875 
L 57.421875 12.015625 
L 68.609375 54.6875 
L 77.59375 54.6875 
L 63.28125 0 
L 52.6875 0 
L 40.921875 44.828125 
L 29.109375 0 
L 18.5 0 
z
" id="DejaVuSans-77"/>
      </defs>
      <g transform="translate(75.219929 552.209375)scale(0.1 -0.1)">
       <use xlink:href="#DejaVuSans-41"/>
       <use x="68.330078" xlink:href="#DejaVuSans-76"/>
       <use x="127.509766" xlink:href="#DejaVuSans-67"/>
       <use x="190.986328" xlink:href="#DejaVuSans-20"/>
       <use x="222.773438" xlink:href="#DejaVuSans-77"/>
       <use x="304.560547" xlink:href="#DejaVuSans-65"/>
       <use x="366.083984" xlink:href="#DejaVuSans-69"/>
       <use x="393.867188" xlink:href="#DejaVuSans-67"/>
       <use x="457.34375" xlink:href="#DejaVuSans-68"/>
       <use x="520.722656" xlink:href="#DejaVuSans-74"/>
      </g>
     </g>
    </g>
    <g id="xtick_3">
     <g id="line2d_3">
      <path clip-path="url(#p906ff7c4f5)" d="M 369 396 
L 610.621088 535.5 
" style="fill:none;stroke:#b0b0b0;stroke-linecap:square;stroke-width:0.8;"/>
     </g>
     <g id="text_3">
      <!-- NHYD -->
      <defs>
       <path d="M 9.8125 72.90625 
L 23.09375 72.90625 
L 55.421875 11.921875 
L 55.421875 72.90625 
L 64.984375 72.90625 
L 64.984375 0 
L 51.703125 0 
L 19.390625 60.984375 
L 19.390625 0 
L 9.8125 0 
z
" id="DejaVuSans-4e"/>
       <path d="M 9.8125 72.90625 
L 19.671875 72.90625 
L 19.671875 43.015625 
L 55.515625 43.015625 
L 55.515625 72.90625 
L 65.375 72.90625 
L 65.375 0 
L 55.515625 0 
L 55.515625 34.71875 
L 19.671875 34.71875 
L 19.671875 0 
L 9.8125 0 
z
" id="DejaVuSans-48"/>
       <path d="M -0.203125 72.90625 
L 10.40625 72.90625 
L 30.609375 42.921875 
L 50.6875 72.90625 
L 61.28125 72.90625 
L 35.5 34.71875 
L 35.5 0 
L 25.59375 0 
L 25.59375 34.71875 
z
" id="DejaVuSans-59"/>
       <path d="M 19.671875 64.796875 
L 19.671875 8.109375 
L 31.59375 8.109375 
Q 46.6875 8.109375 53.6875 14.9375 
Q 60.6875 21.78125 60.6875 36.53125 
Q 60.6875 51.171875 53.6875 57.984375 
Q 46.6875 64.796875 31.59375 64.796875 
z
M 9.8125 72.90625 
L 30.078125 72.90625 
Q 51.265625 72.90625 61.171875 64.09375 
Q 71.09375 55.28125 71.09375 36.53125 
Q 71.09375 17.671875 61.125 8.828125 
Q 51.171875 0 30.078125 0 
L 9.8125 0 
z
" id="DejaVuSans-44"/>
      </defs>
      <g transform="translate(620.378509 552.209375)scale(0.1 -0.1)">
       <use xlink:href="#DejaVuSans-4e"/>
       <use x="74.804688" xlink:href="#DejaVuSans-48"/>
       <use x="150" xlink:href="#DejaVuSans-59"/>
       <use x="211.083984" xlink:href="#DejaVuSans-44"/>
      </g>
     </g>
    </g>
   </g>
   <g id="matplotlib.axis_2">
    <g id="ytick_1">
     <g id="line2d_4">
      <path clip-path="url(#p906ff7c4f5)" d="M 369 376.929035 
L 367.006541 377.033507 
L 365.034923 377.345781 
L 363.106748 377.862434 
L 361.24314 378.577806 
L 359.464517 379.48406 
L 357.790368 380.571265 
L 356.239033 381.827511 
L 354.827511 383.239033 
L 353.571265 384.790368 
L 352.48406 386.464517 
L 351.577806 388.24314 
L 350.862434 390.106748 
L 350.345781 392.034923 
L 350.033507 394.006541 
L 349.929035 396 
L 350.033507 397.993459 
L 350.345781 399.965077 
L 350.862434 401.893252 
L 351.577806 403.75686 
L 352.48406 405.535483 
L 353.571265 407.209632 
L 354.827511 408.760967 
L 356.239033 410.172489 
L 357.790368 411.428735 
L 359.464517 412.51594 
L 361.24314 413.422194 
L 363.106748 414.137566 
L 365.034923 414.654219 
L 367.006541 414.966493 
L 369 415.070965 
L 370.993459 414.966493 
L 372.965077 414.654219 
L 374.893252 414.137566 
L 376.75686 413.422194 
L 378.535483 412.51594 
L 380.209632 411.428735 
L 381.760967 410.172489 
L 383.172489 408.760967 
L 384.428735 407.209632 
L 385.51594 405.535483 
L 386.422194 403.75686 
L 387.137566 401.893252 
L 387.654219 399.965077 
L 387.966493 397.993459 
L 388.070965 396 
L 387.966493 394.006541 
L 387.654219 392.034923 
L 387.137566 390.106748 
L 386.422194 388.24314 
L 385.51594 386.464517 
L 384.428735 384.790368 
L 383.172489 383.239033 
L 381.760967 381.827511 
L 380.209632 380.571265 
L 378.535483 379.48406 
L 376.75686 378.577806 
L 374.893252 377.862434 
L 372.965077 377.345781 
L 370.993459 377.033507 
L 369 376.929035 
L 369 376.929035 
" style="fill:none;stroke:#b0b0b0;stroke-linecap:square;stroke-width:0.8;"/>
     </g>
     <g id="text_4">
      <!-- 10 -->
      <defs>
       <path d="M 12.40625 8.296875 
L 28.515625 8.296875 
L 28.515625 63.921875 
L 10.984375 60.40625 
L 10.984375 69.390625 
L 28.421875 72.90625 
L 38.28125 72.90625 
L 38.28125 8.296875 
L 54.390625 8.296875 
L 54.390625 0 
L 12.40625 0 
z
" id="DejaVuSans-31"/>
       <path d="M 31.78125 66.40625 
Q 24.171875 66.40625 20.328125 58.90625 
Q 16.5 51.421875 16.5 36.375 
Q 16.5 21.390625 20.328125 13.890625 
Q 24.171875 6.390625 31.78125 6.390625 
Q 39.453125 6.390625 43.28125 13.890625 
Q 47.125 21.390625 47.125 36.375 
Q 47.125 51.421875 43.28125 58.90625 
Q 39.453125 66.40625 31.78125 66.40625 
z
M 31.78125 74.21875 
Q 44.046875 74.21875 50.515625 64.515625 
Q 56.984375 54.828125 56.984375 36.375 
Q 56.984375 17.96875 50.515625 8.265625 
Q 44.046875 -1.421875 31.78125 -1.421875 
Q 19.53125 -1.421875 13.0625 8.265625 
Q 6.59375 17.96875 6.59375 36.375 
Q 6.59375 54.828125 13.0625 64.515625 
Q 19.53125 74.21875 31.78125 74.21875 
z
" id="DejaVuSans-30"/>
      </defs>
      <g transform="translate(361.701858 376.301038)scale(0.1 -0.1)">
       <use xlink:href="#DejaVuSans-31"/>
       <use x="63.623047" xlink:href="#DejaVuSans-30"/>
      </g>
     </g>
    </g>
    <g id="ytick_2">
     <g id="line2d_5">
      <path clip-path="url(#p906ff7c4f5)" d="M 369 291.740406 
L 365.361393 291.803918 
L 361.727218 291.994377 
L 358.101905 292.311551 
L 354.489869 292.755053 
L 350.895511 293.324343 
L 347.323212 294.018728 
L 343.777321 294.837361 
L 340.262161 295.779246 
L 336.782014 296.843234 
L 333.341119 298.028029 
L 329.943669 299.332188 
L 326.593803 300.754121 
L 323.295602 302.292098 
L 320.053085 303.944242 
L 316.870203 305.708543 
L 313.750833 307.58285 
L 310.698775 309.564879 
L 307.717748 311.652217 
L 304.811385 313.842319 
L 301.983225 316.132517 
L 299.236715 318.520022 
L 296.5752 321.001924 
L 294.001924 323.5752 
L 291.520022 326.236715 
L 289.132517 328.983225 
L 286.842319 331.811385 
L 284.652217 334.717748 
L 282.564879 337.698775 
L 280.58285 340.750833 
L 278.708543 343.870203 
L 276.944242 347.053085 
L 275.292098 350.295602 
L 273.754121 353.593803 
L 272.332188 356.943669 
L 271.028029 360.341119 
L 269.843234 363.782014 
L 268.779246 367.262161 
L 267.837361 370.777321 
L 267.018728 374.323212 
L 266.324343 377.895511 
L 265.755053 381.489869 
L 265.311551 385.101905 
L 264.994377 388.727218 
L 264.803918 392.361393 
L 264.740406 396 
L 264.803918 399.638607 
L 264.994377 403.272782 
L 265.311551 406.898095 
L 265.755053 410.510131 
L 266.324343 414.104489 
L 267.018728 417.676788 
L 267.837361 421.222679 
L 268.779246 424.737839 
L 269.843234 428.217986 
L 271.028029 431.658881 
L 272.332188 435.056331 
L 273.754121 438.406197 
L 275.292098 441.704398 
L 276.944242 444.946915 
L 278.708543 448.129797 
L 280.58285 451.249167 
L 282.564879 454.301225 
L 284.652217 457.282252 
L 286.842319 460.188615 
L 289.132517 463.016775 
L 291.520022 465.763285 
L 294.001924 468.4248 
L 296.5752 470.998076 
L 299.236715 473.479978 
L 301.983225 475.867483 
L 304.811385 478.157681 
L 307.717748 480.347783 
L 310.698775 482.435121 
L 313.750833 484.41715 
L 316.870203 486.291457 
L 320.053085 488.055758 
L 323.295602 489.707902 
L 326.593803 491.245879 
L 329.943669 492.667812 
L 333.341119 493.971971 
L 336.782014 495.156766 
L 340.262161 496.220754 
L 343.777321 497.162639 
L 347.323212 497.981272 
L 350.895511 498.675657 
L 354.489869 499.244947 
L 358.101905 499.688449 
L 361.727218 500.005623 
L 365.361393 500.196082 
L 369 500.259594 
L 372.638607 500.196082 
L 376.272782 500.005623 
L 379.898095 499.688449 
L 383.510131 499.244947 
L 387.104489 498.675657 
L 390.676788 497.981272 
L 394.222679 497.162639 
L 397.737839 496.220754 
L 401.217986 495.156766 
L 404.658881 493.971971 
L 408.056331 492.667812 
L 411.406197 491.245879 
L 414.704398 489.707902 
L 417.946915 488.055758 
L 421.129797 486.291457 
L 424.249167 484.41715 
L 427.301225 482.435121 
L 430.282252 480.347783 
L 433.188615 478.157681 
L 436.016775 475.867483 
L 438.763285 473.479978 
L 441.4248 470.998076 
L 443.998076 468.4248 
L 446.479978 465.763285 
L 448.867483 463.016775 
L 451.157681 460.188615 
L 453.347783 457.282252 
L 455.435121 454.301225 
L 457.41715 451.249167 
L 459.291457 448.129797 
L 461.055758 444.946915 
L 462.707902 441.704398 
L 464.245879 438.406197 
L 465.667812 435.056331 
L 466.971971 431.658881 
L 468.156766 428.217986 
L 469.220754 424.737839 
L 470.162639 421.222679 
L 470.981272 417.676788 
L 471.675657 414.104489 
L 472.244947 410.510131 
L 472.688449 406.898095 
L 473.005623 403.272782 
L 473.196082 399.638607 
L 473.259594 396 
L 473.196082 392.361393 
L 473.005623 388.727218 
L 472.688449 385.101905 
L 472.244947 381.489869 
L 471.675657 377.895511 
L 470.981272 374.323212 
L 470.162639 370.777321 
L 469.220754 367.262161 
L 468.156766 363.782014 
L 466.971971 360.341119 
L 465.667812 356.943669 
L 464.245879 353.593803 
L 462.707902 350.295602 
L 461.055758 347.053085 
L 459.291457 343.870203 
L 457.41715 340.750833 
L 455.435121 337.698775 
L 453.347783 334.717748 
L 451.157681 331.811385 
L 448.867483 328.983225 
L 446.479978 326.236715 
L 443.998076 323.5752 
L 441.4248 321.001924 
L 438.763285 318.520022 
L 436.016775 316.132517 
L 433.188615 313.842319 
L 430.282252 311.652217 
L 427.301225 309.564879 
L 424.249167 307.58285 
L 421.129797 305.708543 
L 417.946915 303.944242 
L 414.704398 302.292098 
L 411.406197 300.754121 
L 408.056331 299.332188 
L 404.658881 298.028029 
L 401.217986 296.843234 
L 397.737839 295.779246 
L 394.222679 294.837361 
L 390.676788 294.018728 
L 387.104489 293.324343 
L 383.510131 292.755053 
L 379.898095 292.311551 
L 376.272782 291.994377 
L 372.638607 291.803918 
L 369 291.740406 
L 369 291.740406 
" style="fill:none;stroke:#b0b0b0;stroke-linecap:square;stroke-width:0.8;"/>
     </g>
     <g id="text_5">
      <!-- 50 -->
      <defs>
       <path d="M 10.796875 72.90625 
L 49.515625 72.90625 
L 49.515625 64.59375 
L 19.828125 64.59375 
L 19.828125 46.734375 
Q 21.96875 47.46875 24.109375 47.828125 
Q 26.265625 48.1875 28.421875 48.1875 
Q 40.625 48.1875 47.75 41.5 
Q 54.890625 34.8125 54.890625 23.390625 
Q 54.890625 11.625 47.5625 5.09375 
Q 40.234375 -1.421875 26.90625 -1.421875 
Q 22.3125 -1.421875 17.546875 -0.640625 
Q 12.796875 0.140625 7.71875 1.703125 
L 7.71875 11.625 
Q 12.109375 9.234375 16.796875 8.0625 
Q 21.484375 6.890625 26.703125 6.890625 
Q 35.15625 6.890625 40.078125 11.328125 
Q 45.015625 15.765625 45.015625 23.390625 
Q 45.015625 31 40.078125 35.4375 
Q 35.15625 39.890625 26.703125 39.890625 
Q 22.75 39.890625 18.8125 39.015625 
Q 14.890625 38.140625 10.796875 36.28125 
z
" id="DejaVuSans-35"/>
      </defs>
      <g transform="translate(329.101581 297.597008)scale(0.1 -0.1)">
       <use xlink:href="#DejaVuSans-35"/>
       <use x="63.623047" xlink:href="#DejaVuSans-30"/>
      </g>
     </g>
    </g>
    <g id="ytick_3">
     <g id="line2d_6">
      <path clip-path="url(#p906ff7c4f5)" d="M 369 185.25462 
L 361.645092 185.383001 
L 354.299145 185.767985 
L 346.971109 186.409105 
L 339.669912 187.30558 
L 332.404449 188.456316 
L 325.183572 189.859912 
L 318.016078 191.514659 
L 310.910701 193.418539 
L 303.876096 195.569233 
L 296.920835 197.964122 
L 290.053391 200.600286 
L 283.282132 203.474515 
L 276.615306 206.583307 
L 270.061037 209.922874 
L 263.62731 213.489147 
L 257.321963 217.277782 
L 251.152679 221.284162 
L 245.126974 225.503406 
L 239.252188 229.930374 
L 233.535481 234.559673 
L 227.983816 239.385661 
L 222.603958 244.402461 
L 217.402461 249.603958 
L 212.385661 254.983816 
L 207.559673 260.535481 
L 202.930374 266.252188 
L 198.503406 272.126974 
L 194.284162 278.152679 
L 190.277782 284.321963 
L 186.489147 290.62731 
L 182.922874 297.061037 
L 179.583307 303.615306 
L 176.474515 310.282132 
L 173.600286 317.053391 
L 170.964122 323.920835 
L 168.569233 330.876096 
L 166.418539 337.910701 
L 164.514659 345.016078 
L 162.859912 352.183572 
L 161.456316 359.404449 
L 160.30558 366.669912 
L 159.409105 373.971109 
L 158.767985 381.299145 
L 158.383001 388.645092 
L 158.25462 396 
L 158.383001 403.354908 
L 158.767985 410.700855 
L 159.409105 418.028891 
L 160.30558 425.330088 
L 161.456316 432.595551 
L 162.859912 439.816428 
L 164.514659 446.983922 
L 166.418539 454.089299 
L 168.569233 461.123904 
L 170.964122 468.079165 
L 173.600286 474.946609 
L 176.474515 481.717868 
L 179.583307 488.384694 
L 182.922874 494.938963 
L 186.489147 501.37269 
L 190.277782 507.678037 
L 194.284162 513.847321 
L 198.503406 519.873026 
L 202.930374 525.747812 
L 207.559673 531.464519 
L 212.385661 537.016184 
L 217.402461 542.396042 
L 222.603958 547.597539 
L 227.983816 552.614339 
L 233.535481 557.440327 
L 239.252188 562.069626 
L 245.126974 566.496594 
L 251.152679 570.715838 
L 257.321963 574.722218 
L 263.62731 578.510853 
L 270.061037 582.077126 
L 276.615306 585.416693 
L 283.282132 588.525485 
L 290.053391 591.399714 
L 296.920835 594.035878 
L 303.876096 596.430767 
L 310.910701 598.581461 
L 318.016078 600.485341 
L 325.183572 602.140088 
L 332.404449 603.543684 
L 339.669912 604.69442 
L 346.971109 605.590895 
L 354.299145 606.232015 
L 361.645092 606.616999 
L 369 606.74538 
L 376.354908 606.616999 
L 383.700855 606.232015 
L 391.028891 605.590895 
L 398.330088 604.69442 
L 405.595551 603.543684 
L 412.816428 602.140088 
L 419.983922 600.485341 
L 427.089299 598.581461 
L 434.123904 596.430767 
L 441.079165 594.035878 
L 447.946609 591.399714 
L 454.717868 588.525485 
L 461.384694 585.416693 
L 467.938963 582.077126 
L 474.37269 578.510853 
L 480.678037 574.722218 
L 486.847321 570.715838 
L 492.873026 566.496594 
L 498.747812 562.069626 
L 504.464519 557.440327 
L 510.016184 552.614339 
L 515.396042 547.597539 
L 520.597539 542.396042 
L 525.614339 537.016184 
L 530.440327 531.464519 
L 535.069626 525.747812 
L 539.496594 519.873026 
L 543.715838 513.847321 
L 547.722218 507.678037 
L 551.510853 501.37269 
L 555.077126 494.938963 
L 558.416693 488.384694 
L 561.525485 481.717868 
L 564.399714 474.946609 
L 567.035878 468.079165 
L 569.430767 461.123904 
L 571.581461 454.089299 
L 573.485341 446.983922 
L 575.140088 439.816428 
L 576.543684 432.595551 
L 577.69442 425.330088 
L 578.590895 418.028891 
L 579.232015 410.700855 
L 579.616999 403.354908 
L 579.74538 396 
L 579.616999 388.645092 
L 579.232015 381.299145 
L 578.590895 373.971109 
L 577.69442 366.669912 
L 576.543684 359.404449 
L 575.140088 352.183572 
L 573.485341 345.016078 
L 571.581461 337.910701 
L 569.430767 330.876096 
L 567.035878 323.920835 
L 564.399714 317.053391 
L 561.525485 310.282132 
L 558.416693 303.615306 
L 555.077126 297.061037 
L 551.510853 290.62731 
L 547.722218 284.321963 
L 543.715838 278.152679 
L 539.496594 272.126974 
L 535.069626 266.252188 
L 530.440327 260.535481 
L 525.614339 254.983816 
L 520.597539 249.603958 
L 515.396042 244.402461 
L 510.016184 239.385661 
L 504.464519 234.559673 
L 498.747812 229.930374 
L 492.873026 225.503406 
L 486.847321 221.284162 
L 480.678037 217.277782 
L 474.37269 213.489147 
L 467.938963 209.922874 
L 461.384694 206.583307 
L 454.717868 203.474515 
L 447.946609 200.600286 
L 441.079165 197.964122 
L 434.123904 195.569233 
L 427.089299 193.418539 
L 419.983922 191.514659 
L 412.816428 189.859912 
L 405.595551 188.456316 
L 398.330088 187.30558 
L 391.028891 186.409105 
L 383.700855 185.767985 
L 376.354908 185.383001 
L 369 185.25462 
L 369 185.25462 
" style="fill:none;stroke:#b0b0b0;stroke-linecap:square;stroke-width:0.8;"/>
     </g>
     <g id="text_6">
      <!-- 100 -->
      <g transform="translate(288.351235 199.216969)scale(0.1 -0.1)">
       <use xlink:href="#DejaVuSans-31"/>
       <use x="63.623047" xlink:href="#DejaVuSans-30"/>
       <use x="127.246094" xlink:href="#DejaVuSans-30"/>
      </g>
     </g>
    </g>
   </g>
   <g id="line2d_7">
    <path clip-path="url(#p906ff7c4f5)" d="M 369 129.681818 
L 347.672051 408.313697 
L 379.982777 402.340909 
L 369 129.681818 
" style="fill:none;stroke:#0000ff;stroke-linecap:square;stroke-width:1.5;"/>
   </g>
   <g id="patch_4">
    <path d="M 369 117 
L 127.378912 535.5 
L 610.621088 535.5 
L 369 117 
" style="fill:none;stroke:#000000;stroke-linecap:square;stroke-linejoin:miter;stroke-width:0.8;"/>
   </g>
   <g id="text_7">
    <!-- COc(cc1)ccc1C#N -->
    <defs>
     <path d="M 67 4 
Q 61.8125 1.3125 56.203125 -0.046875 
Q 50.59375 -1.421875 44.484375 -1.421875 
Q 26.265625 -1.421875 15.625 8.765625 
Q 4.984375 18.953125 4.984375 36.375 
Q 4.984375 53.859375 15.625 64.03125 
Q 26.265625 74.21875 44.484375 74.21875 
Q 50.59375 74.21875 56.203125 72.84375 
Q 61.8125 71.484375 67 68.796875 
L 67 53.71875 
Q 61.765625 57.28125 56.6875 58.9375 
Q 51.609375 60.59375 46 60.59375 
Q 35.9375 60.59375 30.171875 54.140625 
Q 24.421875 47.703125 24.421875 36.375 
Q 24.421875 25.09375 30.171875 18.640625 
Q 35.9375 12.203125 46 12.203125 
Q 51.609375 12.203125 56.6875 13.859375 
Q 61.765625 15.53125 67 19.09375 
z
" id="DejaVuSans-Bold-43"/>
     <path d="M 42.484375 60.59375 
Q 33.890625 60.59375 29.15625 54.25 
Q 24.421875 47.90625 24.421875 36.375 
Q 24.421875 24.90625 29.15625 18.546875 
Q 33.890625 12.203125 42.484375 12.203125 
Q 51.125 12.203125 55.859375 18.546875 
Q 60.59375 24.90625 60.59375 36.375 
Q 60.59375 47.90625 55.859375 54.25 
Q 51.125 60.59375 42.484375 60.59375 
z
M 42.484375 74.21875 
Q 60.0625 74.21875 70.015625 64.15625 
Q 79.984375 54.109375 79.984375 36.375 
Q 79.984375 18.703125 70.015625 8.640625 
Q 60.0625 -1.421875 42.484375 -1.421875 
Q 24.953125 -1.421875 14.96875 8.640625 
Q 4.984375 18.703125 4.984375 36.375 
Q 4.984375 54.109375 14.96875 64.15625 
Q 24.953125 74.21875 42.484375 74.21875 
z
" id="DejaVuSans-Bold-4f"/>
     <path d="M 52.59375 52.984375 
L 52.59375 38.71875 
Q 49.03125 41.15625 45.4375 42.328125 
Q 41.84375 43.5 37.984375 43.5 
Q 30.671875 43.5 26.59375 39.234375 
Q 22.515625 34.96875 22.515625 27.296875 
Q 22.515625 19.625 26.59375 15.34375 
Q 30.671875 11.078125 37.984375 11.078125 
Q 42.09375 11.078125 45.78125 12.296875 
Q 49.46875 13.53125 52.59375 15.921875 
L 52.59375 1.609375 
Q 48.484375 0.09375 44.265625 -0.65625 
Q 40.046875 -1.421875 35.796875 -1.421875 
Q 21 -1.421875 12.640625 6.171875 
Q 4.296875 13.765625 4.296875 27.296875 
Q 4.296875 40.828125 12.640625 48.40625 
Q 21 56 35.796875 56 
Q 40.09375 56 44.265625 55.25 
Q 48.4375 54.5 52.59375 52.984375 
z
" id="DejaVuSans-Bold-63"/>
     <path d="M 37.703125 -13.1875 
L 23.1875 -13.1875 
Q 15.71875 -1.125 12.15625 9.734375 
Q 8.59375 20.609375 8.59375 31.296875 
Q 8.59375 42 12.171875 52.953125 
Q 15.765625 63.921875 23.1875 75.875 
L 37.703125 75.875 
Q 31.453125 64.3125 28.328125 53.25 
Q 25.203125 42.1875 25.203125 31.390625 
Q 25.203125 20.609375 28.296875 9.515625 
Q 31.390625 -1.5625 37.703125 -13.1875 
z
" id="DejaVuSans-Bold-28"/>
     <path d="M 11.71875 12.984375 
L 28.328125 12.984375 
L 28.328125 60.109375 
L 11.28125 56.59375 
L 11.28125 69.390625 
L 28.21875 72.90625 
L 46.09375 72.90625 
L 46.09375 12.984375 
L 62.703125 12.984375 
L 62.703125 0 
L 11.71875 0 
z
" id="DejaVuSans-Bold-31"/>
     <path d="M 8.015625 -13.1875 
Q 14.265625 -1.5625 17.390625 9.515625 
Q 20.515625 20.609375 20.515625 31.390625 
Q 20.515625 42.1875 17.390625 53.25 
Q 14.265625 64.3125 8.015625 75.875 
L 22.515625 75.875 
Q 29.9375 63.921875 33.515625 52.953125 
Q 37.109375 42 37.109375 31.296875 
Q 37.109375 20.609375 33.546875 9.734375 
Q 29.984375 -1.125 22.515625 -13.1875 
z
" id="DejaVuSans-Bold-29"/>
     <path d="M 44.484375 71.78125 
L 39.796875 52.984375 
L 52.6875 52.984375 
L 57.421875 71.78125 
L 68.21875 71.78125 
L 63.484375 52.984375 
L 77 52.984375 
L 77 42.578125 
L 60.890625 42.578125 
L 57.515625 29.203125 
L 71.390625 29.203125 
L 71.390625 18.703125 
L 54.984375 18.703125 
L 50.296875 0 
L 39.5 0 
L 44.1875 18.703125 
L 31.296875 18.703125 
L 26.609375 0 
L 15.71875 0 
L 20.40625 18.703125 
L 6.78125 18.703125 
L 6.78125 29.203125 
L 22.796875 29.203125 
L 26.21875 42.578125 
L 12.40625 42.578125 
L 12.40625 52.984375 
L 28.90625 52.984375 
L 33.59375 71.78125 
z
M 50 42.578125 
L 37.109375 42.578125 
L 33.6875 29.203125 
L 46.578125 29.203125 
z
" id="DejaVuSans-Bold-23"/>
     <path d="M 9.1875 72.90625 
L 30.171875 72.90625 
L 56.6875 22.90625 
L 56.6875 72.90625 
L 74.515625 72.90625 
L 74.515625 0 
L 53.515625 0 
L 27 50 
L 27 0 
L 9.1875 0 
z
" id="DejaVuSans-Bold-4e"/>
    </defs>
    <g transform="translate(319.723437 57.959375)scale(0.1 -0.1)">
     <use xlink:href="#DejaVuSans-Bold-43"/>
     <use x="73.388672" xlink:href="#DejaVuSans-Bold-4f"/>
     <use x="158.398438" xlink:href="#DejaVuSans-Bold-63"/>
     <use x="217.675781" xlink:href="#DejaVuSans-Bold-28"/>
     <use x="263.378906" xlink:href="#DejaVuSans-Bold-63"/>
     <use x="322.65625" xlink:href="#DejaVuSans-Bold-63"/>
     <use x="381.933594" xlink:href="#DejaVuSans-Bold-31"/>
     <use x="451.513672" xlink:href="#DejaVuSans-Bold-29"/>
     <use x="497.216797" xlink:href="#DejaVuSans-Bold-63"/>
     <use x="556.494141" xlink:href="#DejaVuSans-Bold-63"/>
     <use x="615.771484" xlink:href="#DejaVuSans-Bold-63"/>
     <use x="675.048828" xlink:href="#DejaVuSans-Bold-31"/>
     <use x="744.628906" xlink:href="#DejaVuSans-Bold-43"/>
     <use x="818.017578" xlink:href="#DejaVuSans-Bold-23"/>
     <use x="901.806641" xlink:href="#DejaVuSans-Bold-4e"/>
    </g>
   </g>
   <g id="legend_1">
    <g id="patch_5">
     <path d="M 594.6 144.9 
L 661.606875 144.9 
Q 664.006875 144.9 664.006875 142.5 
L 664.006875 126.08625 
Q 664.006875 123.68625 661.606875 123.68625 
L 594.6 123.68625 
Q 592.2 123.68625 592.2 126.08625 
L 592.2 142.5 
Q 592.2 144.9 594.6 144.9 
z
" style="fill:#ffffff;opacity:0.8;stroke:#cccccc;stroke-linejoin:miter;"/>
    </g>
    <g id="line2d_8">
     <path d="M 597 133.404375 
L 621 133.404375 
" style="fill:none;stroke:#0000ff;stroke-linecap:square;stroke-width:1.5;"/>
    </g>
    <g id="line2d_9"/>
    <g id="text_8">
     <!-- base -->
     <defs>
      <path d="M 48.6875 27.296875 
Q 48.6875 37.203125 44.609375 42.84375 
Q 40.53125 48.484375 33.40625 48.484375 
Q 26.265625 48.484375 22.1875 42.84375 
Q 18.109375 37.203125 18.109375 27.296875 
Q 18.109375 17.390625 22.1875 11.75 
Q 26.265625 6.109375 33.40625 6.109375 
Q 40.53125 6.109375 44.609375 11.75 
Q 48.6875 17.390625 48.6875 27.296875 
z
M 18.109375 46.390625 
Q 20.953125 51.265625 25.265625 53.625 
Q 29.59375 56 35.59375 56 
Q 45.5625 56 51.78125 48.09375 
Q 58.015625 40.1875 58.015625 27.296875 
Q 58.015625 14.40625 51.78125 6.484375 
Q 45.5625 -1.421875 35.59375 -1.421875 
Q 29.59375 -1.421875 25.265625 0.953125 
Q 20.953125 3.328125 18.109375 8.203125 
L 18.109375 0 
L 9.078125 0 
L 9.078125 75.984375 
L 18.109375 75.984375 
z
" id="DejaVuSans-62"/>
      <path d="M 34.28125 27.484375 
Q 23.390625 27.484375 19.1875 25 
Q 14.984375 22.515625 14.984375 16.5 
Q 14.984375 11.71875 18.140625 8.90625 
Q 21.296875 6.109375 26.703125 6.109375 
Q 34.1875 6.109375 38.703125 11.40625 
Q 43.21875 16.703125 43.21875 25.484375 
L 43.21875 27.484375 
z
M 52.203125 31.203125 
L 52.203125 0 
L 43.21875 0 
L 43.21875 8.296875 
Q 40.140625 3.328125 35.546875 0.953125 
Q 30.953125 -1.421875 24.3125 -1.421875 
Q 15.921875 -1.421875 10.953125 3.296875 
Q 6 8.015625 6 15.921875 
Q 6 25.140625 12.171875 29.828125 
Q 18.359375 34.515625 30.609375 34.515625 
L 43.21875 34.515625 
L 43.21875 35.40625 
Q 43.21875 41.609375 39.140625 45 
Q 35.0625 48.390625 27.6875 48.390625 
Q 23 48.390625 18.546875 47.265625 
Q 14.109375 46.140625 10.015625 43.890625 
L 10.015625 52.203125 
Q 14.9375 54.109375 19.578125 55.046875 
Q 24.21875 56 28.609375 56 
Q 40.484375 56 46.34375 49.84375 
Q 52.203125 43.703125 52.203125 31.203125 
z
" id="DejaVuSans-61"/>
      <path d="M 44.28125 53.078125 
L 44.28125 44.578125 
Q 40.484375 46.53125 36.375 47.5 
Q 32.28125 48.484375 27.875 48.484375 
Q 21.1875 48.484375 17.84375 46.4375 
Q 14.5 44.390625 14.5 40.28125 
Q 14.5 37.15625 16.890625 35.375 
Q 19.28125 33.59375 26.515625 31.984375 
L 29.59375 31.296875 
Q 39.15625 29.25 43.1875 25.515625 
Q 47.21875 21.78125 47.21875 15.09375 
Q 47.21875 7.46875 41.1875 3.015625 
Q 35.15625 -1.421875 24.609375 -1.421875 
Q 20.21875 -1.421875 15.453125 -0.5625 
Q 10.6875 0.296875 5.421875 2 
L 5.421875 11.28125 
Q 10.40625 8.6875 15.234375 7.390625 
Q 20.0625 6.109375 24.8125 6.109375 
Q 31.15625 6.109375 34.5625 8.28125 
Q 37.984375 10.453125 37.984375 14.40625 
Q 37.984375 18.0625 35.515625 20.015625 
Q 33.0625 21.96875 24.703125 23.78125 
L 21.578125 24.515625 
Q 13.234375 26.265625 9.515625 29.90625 
Q 5.8125 33.546875 5.8125 39.890625 
Q 5.8125 47.609375 11.28125 51.796875 
Q 16.75 56 26.8125 56 
Q 31.78125 56 36.171875 55.265625 
Q 40.578125 54.546875 44.28125 53.078125 
z
" id="DejaVuSans-73"/>
     </defs>
     <g transform="translate(630.6 137.604375)scale(0.12 -0.12)">
      <use xlink:href="#DejaVuSans-62"/>
      <use x="63.476562" xlink:href="#DejaVuSans-61"/>
      <use x="124.755859" xlink:href="#DejaVuSans-73"/>
      <use x="176.855469" xlink:href="#DejaVuSans-65"/>
     </g>
    </g>
   </g>
  </g>
 </g>
 <defs>
  <clipPath id="p906ff7c4f5">
   <path d="M 369 117 
L 127.378912 535.5 
L 610.621088 535.5 
z
"/>
  </clipPath>
 </defs>
</svg>
