<?xml version="1.0" encoding="utf-8" standalone="no"?>
<!DOCTYPE svg PUBLIC "-//W3C//DTD SVG 1.1//EN"
  "http://www.w3.org/Graphics/SVG/1.1/DTD/svg11.dtd">
<!-- Created with matplotlib (http://matplotlib.org/) -->
<svg height="720pt" version="1.1" viewBox="0 0 720 720" width="720pt" xmlns="http://www.w3.org/2000/svg" xmlns:xlink="http://www.w3.org/1999/xlink">
 <defs>
  <style type="text/css">
*{stroke-linecap:butt;stroke-linejoin:round;}
  </style>
 </defs>
 <g id="figure_1">
  <g id="patch_1">
   <path d="M 0 720 
L 720 720 
L 720 0 
L 0 0 
z
" style="fill:#ffffff;"/>
  </g>
  <g id="axes_1">
   <g id="patch_2">
    <path d="M 369 117 
L 127.378912 535.5 
L 610.621088 535.5 
z
" style="fill:#ffffff;"/>
   </g>
   <g id="patch_3">
    <path clip-path="url(#p124e48d932)" d="M 369 129.681818 
L 304.371343 433.313373 
L 379.982777 402.340909 
z
" style="fill:#0000ff;opacity:0.25;"/>
   </g>
   <g id="matplotlib.axis_1">
    <g id="xtick_1">
     <g id="line2d_1">
      <path clip-path="url(#p124e48d932)" d="M 369 396 
L 369 117 
" style="fill:none;stroke:#b0b0b0;stroke-linecap:square;stroke-width:0.8;"/>
     </g>
     <g id="text_1">
      <!-- Weight -->
      <defs>
       <path d="M 3.328125 72.90625 
L 13.28125 72.90625 
L 28.609375 11.28125 
L 43.890625 72.90625 
L 54.984375 72.90625 
L 70.3125 11.28125 
L 85.59375 72.90625 
L 95.609375 72.90625 
L 77.296875 0 
L 64.890625 0 
L 49.515625 63.28125 
L 33.984375 0 
L 21.578125 0 
z
" id="DejaVuSans-57"/>
       <path d="M 56.203125 29.59375 
L 56.203125 25.203125 
L 14.890625 25.203125 
Q 15.484375 15.921875 20.484375 11.0625 
Q 25.484375 6.203125 34.421875 6.203125 
Q 39.59375 6.203125 44.453125 7.46875 
Q 49.3125 8.734375 54.109375 11.28125 
L 54.109375 2.78125 
Q 49.265625 0.734375 44.1875 -0.34375 
Q 39.109375 -1.421875 33.890625 -1.421875 
Q 20.796875 -1.421875 13.15625 6.1875 
Q 5.515625 13.8125 5.515625 26.8125 
Q 5.515625 40.234375 12.765625 48.109375 
Q 20.015625 56 32.328125 56 
Q 43.359375 56 49.78125 48.890625 
Q 56.203125 41.796875 56.203125 29.59375 
z
M 47.21875 32.234375 
Q 47.125 39.59375 43.09375 43.984375 
Q 39.0625 48.390625 32.421875 48.390625 
Q 24.90625 48.390625 20.390625 44.140625 
Q 15.875 39.890625 15.1875 32.171875 
z
" id="DejaVuSans-65"/>
       <path d="M 9.421875 54.6875 
L 18.40625 54.6875 
L 18.40625 0 
L 9.421875 0 
z
M 9.421875 75.984375 
L 18.40625 75.984375 
L 18.40625 64.59375 
L 9.421875 64.59375 
z
" id="DejaVuSans-69"/>
       <path d="M 45.40625 27.984375 
Q 45.40625 37.75 41.375 43.109375 
Q 37.359375 48.484375 30.078125 48.484375 
Q 22.859375 48.484375 18.828125 43.109375 
Q 14.796875 37.75 14.796875 27.984375 
Q 14.796875 18.265625 18.828125 12.890625 
Q 22.859375 7.515625 30.078125 7.515625 
Q 37.359375 7.515625 41.375 12.890625 
Q 45.40625 18.265625 45.40625 27.984375 
z
M 54.390625 6.78125 
Q 54.390625 -7.171875 48.1875 -13.984375 
Q 42 -20.796875 29.203125 -20.796875 
Q 24.46875 -20.796875 20.265625 -20.09375 
Q 16.0625 -19.390625 12.109375 -17.921875 
L 12.109375 -9.1875 
Q 16.0625 -11.328125 19.921875 -12.34375 
Q 23.78125 -13.375 27.78125 -13.375 
Q 36.625 -13.375 41.015625 -8.765625 
Q 45.40625 -4.15625 45.40625 5.171875 
L 45.40625 9.625 
Q 42.625 4.78125 38.28125 2.390625 
Q 33.9375 0 27.875 0 
Q 17.828125 0 11.671875 7.65625 
Q 5.515625 15.328125 5.515625 27.984375 
Q 5.515625 40.671875 11.671875 48.328125 
Q 17.828125 56 27.875 56 
Q 33.9375 56 38.28125 53.609375 
Q 42.625 51.21875 45.40625 46.390625 
L 45.40625 54.6875 
L 54.390625 54.6875 
z
" id="DejaVuSans-67"/>
       <path d="M 54.890625 33.015625 
L 54.890625 0 
L 45.90625 0 
L 45.90625 32.71875 
Q 45.90625 40.484375 42.875 44.328125 
Q 39.84375 48.1875 33.796875 48.1875 
Q 26.515625 48.1875 22.3125 43.546875 
Q 18.109375 38.921875 18.109375 30.90625 
L 18.109375 0 
L 9.078125 0 
L 9.078125 75.984375 
L 18.109375 75.984375 
L 18.109375 46.1875 
Q 21.34375 51.125 25.703125 53.5625 
Q 30.078125 56 35.796875 56 
Q 45.21875 56 50.046875 50.171875 
Q 54.890625 44.34375 54.890625 33.015625 
z
" id="DejaVuSans-68"/>
       <path d="M 18.3125 70.21875 
L 18.3125 54.6875 
L 36.8125 54.6875 
L 36.8125 47.703125 
L 18.3125 47.703125 
L 18.3125 18.015625 
Q 18.3125 11.328125 20.140625 9.421875 
Q 21.96875 7.515625 27.59375 7.515625 
L 36.8125 7.515625 
L 36.8125 0 
L 27.59375 0 
Q 17.1875 0 13.234375 3.875 
Q 9.28125 7.765625 9.28125 18.015625 
L 9.28125 47.703125 
L 2.6875 47.703125 
L 2.6875 54.6875 
L 9.28125 54.6875 
L 9.28125 70.21875 
z
" id="DejaVuSans-74"/>
      </defs>
      <g transform="translate(351.291406 91.859375)scale(0.1 -0.1)">
       <use xlink:href="#DejaVuSans-57"/>
       <use x="98.798828" xlink:href="#DejaVuSans-65"/>
       <use x="160.322266" xlink:href="#DejaVuSans-69"/>
       <use x="188.105469" xlink:href="#DejaVuSans-67"/>
       <use x="251.582031" xlink:href="#DejaVuSans-68"/>
       <use x="314.960938" xlink:href="#DejaVuSans-74"/>
      </g>
     </g>
    </g>
    <g id="xtick_2">
     <g id="line2d_2">
      <path clip-path="url(#p124e48d932)" d="M 369 396 
L 127.378912 535.5 
" style="fill:none;stroke:#b0b0b0;stroke-linecap:square;stroke-width:0.8;"/>
     </g>
     <g id="text_2">
      <!-- Avg weight -->
      <defs>
       <path d="M 34.1875 63.1875 
L 20.796875 26.90625 
L 47.609375 26.90625 
z
M 28.609375 72.90625 
L 39.796875 72.90625 
L 67.578125 0 
L 57.328125 0 
L 50.6875 18.703125 
L 17.828125 18.703125 
L 11.1875 0 
L 0.78125 0 
z
" id="DejaVuSans-41"/>
       <path d="M 2.984375 54.6875 
L 12.5 54.6875 
L 29.59375 8.796875 
L 46.6875 54.6875 
L 56.203125 54.6875 
L 35.6875 0 
L 23.484375 0 
z
" id="DejaVuSans-76"/>
       <path id="DejaVuSans-20"/>
       <path d="M 4.203125 54.6875 
L 13.1875 54.6875 
L 24.421875 12.015625 
L 35.59375 54.6875 
L 46.1875 54.6875 
L 57.421875 12.015625 
L 68.609375 54.6875 
L 77.59375 54.6875 
L 63.28125 0 
L 52.6875 0 
L 40.921875 44.828125 
L 29.109375 0 
L 18.5 0 
z
" id="DejaVuSans-77"/>
      </defs>
      <g transform="translate(75.219929 552.209375)scale(0.1 -0.1)">
       <use xlink:href="#DejaVuSans-41"/>
       <use x="68.330078" xlink:href="#DejaVuSans-76"/>
       <use x="127.509766" xlink:href="#DejaVuSans-67"/>
       <use x="190.986328" xlink:href="#DejaVuSans-20"/>
       <use x="222.773438" xlink:href="#DejaVuSans-77"/>
       <use x="304.560547" xlink:href="#DejaVuSans-65"/>
       <use x="366.083984" xlink:href="#DejaVuSans-69"/>
       <use x="393.867188" xlink:href="#DejaVuSans-67"/>
       <use x="457.34375" xlink:href="#DejaVuSans-68"/>
       <use x="520.722656" xlink:href="#DejaVuSans-74"/>
      </g>
     </g>
    </g>
    <g id="xtick_3">
     <g id="line2d_3">
      <path clip-path="url(#p124e48d932)" d="M 369 396 
L 610.621088 535.5 
" style="fill:none;stroke:#b0b0b0;stroke-linecap:square;stroke-width:0.8;"/>
     </g>
     <g id="text_3">
      <!-- NHYD -->
      <defs>
       <path d="M 9.8125 72.90625 
L 23.09375 72.90625 
L 55.421875 11.921875 
L 55.421875 72.90625 
L 64.984375 72.90625 
L 64.984375 0 
L 51.703125 0 
L 19.390625 60.984375 
L 19.390625 0 
L 9.8125 0 
z
" id="DejaVuSans-4e"/>
       <path d="M 9.8125 72.90625 
L 19.671875 72.90625 
L 19.671875 43.015625 
L 55.515625 43.015625 
L 55.515625 72.90625 
L 65.375 72.90625 
L 65.375 0 
L 55.515625 0 
L 55.515625 34.71875 
L 19.671875 34.71875 
L 19.671875 0 
L 9.8125 0 
z
" id="DejaVuSans-48"/>
       <path d="M -0.203125 72.90625 
L 10.40625 72.90625 
L 30.609375 42.921875 
L 50.6875 72.90625 
L 61.28125 72.90625 
L 35.5 34.71875 
L 35.5 0 
L 25.59375 0 
L 25.59375 34.71875 
z
" id="DejaVuSans-59"/>
       <path d="M 19.671875 64.796875 
L 19.671875 8.109375 
L 31.59375 8.109375 
Q 46.6875 8.109375 53.6875 14.9375 
Q 60.6875 21.78125 60.6875 36.53125 
Q 60.6875 51.171875 53.6875 57.984375 
Q 46.6875 64.796875 31.59375 64.796875 
z
M 9.8125 72.90625 
L 30.078125 72.90625 
Q 51.265625 72.90625 61.171875 64.09375 
Q 71.09375 55.28125 71.09375 36.53125 
Q 71.09375 17.671875 61.125 8.828125 
Q 51.171875 0 30.078125 0 
L 9.8125 0 
z
" id="DejaVuSans-44"/>
      </defs>
      <g transform="translate(620.378509 552.209375)scale(0.1 -0.1)">
       <use xlink:href="#DejaVuSans-4e"/>
       <use x="74.804688" xlink:href="#DejaVuSans-48"/>
       <use x="150" xlink:href="#DejaVuSans-59"/>
       <use x="211.083984" xlink:href="#DejaVuSans-44"/>
      </g>
     </g>
    </g>
   </g>
   <g id="matplotlib.axis_2">
    <g id="ytick_1">
     <g id="line2d_4">
      <path clip-path="url(#p124e48d932)" d="M 369 378.762499 
L 367.19819 378.856927 
L 365.416122 379.139179 
L 363.673319 379.606162 
L 361.988877 380.252759 
L 360.381249 381.071886 
L 358.868051 382.054568 
L 357.46586 383.19004 
L 356.19004 384.46586 
L 355.054568 385.868051 
L 354.071886 387.381249 
L 353.252759 388.988877 
L 352.606162 390.673319 
L 352.139179 392.416122 
L 351.856927 394.19819 
L 351.762499 396 
L 351.856927 397.80181 
L 352.139179 399.583878 
L 352.606162 401.326681 
L 353.252759 403.011123 
L 354.071886 404.618751 
L 355.054568 406.131949 
L 356.19004 407.53414 
L 357.46586 408.80996 
L 358.868051 409.945432 
L 360.381249 410.928114 
L 361.988877 411.747241 
L 363.673319 412.393838 
L 365.416122 412.860821 
L 367.19819 413.143073 
L 369 413.237501 
L 370.80181 413.143073 
L 372.583878 412.860821 
L 374.326681 412.393838 
L 376.011123 411.747241 
L 377.618751 410.928114 
L 379.131949 409.945432 
L 380.53414 408.80996 
L 381.80996 407.53414 
L 382.945432 406.131949 
L 383.928114 404.618751 
L 384.747241 403.011123 
L 385.393838 401.326681 
L 385.860821 399.583878 
L 386.143073 397.80181 
L 386.237501 396 
L 386.143073 394.19819 
L 385.860821 392.416122 
L 385.393838 390.673319 
L 384.747241 388.988877 
L 383.928114 387.381249 
L 382.945432 385.868051 
L 381.80996 384.46586 
L 380.53414 383.19004 
L 379.131949 382.054568 
L 377.618751 381.071886 
L 376.011123 380.252759 
L 374.326681 379.606162 
L 372.583878 379.139179 
L 370.80181 378.856927 
L 369 378.762499 
L 369 378.762499 
" style="fill:none;stroke:#b0b0b0;stroke-linecap:square;stroke-width:0.8;"/>
     </g>
     <g id="text_4">
      <!-- 10 -->
      <defs>
       <path d="M 12.40625 8.296875 
L 28.515625 8.296875 
L 28.515625 63.921875 
L 10.984375 60.40625 
L 10.984375 69.390625 
L 28.421875 72.90625 
L 38.28125 72.90625 
L 38.28125 8.296875 
L 54.390625 8.296875 
L 54.390625 0 
L 12.40625 0 
z
" id="DejaVuSans-31"/>
       <path d="M 31.78125 66.40625 
Q 24.171875 66.40625 20.328125 58.90625 
Q 16.5 51.421875 16.5 36.375 
Q 16.5 21.390625 20.328125 13.890625 
Q 24.171875 6.390625 31.78125 6.390625 
Q 39.453125 6.390625 43.28125 13.890625 
Q 47.125 21.390625 47.125 36.375 
Q 47.125 51.421875 43.28125 58.90625 
Q 39.453125 66.40625 31.78125 66.40625 
z
M 31.78125 74.21875 
Q 44.046875 74.21875 50.515625 64.515625 
Q 56.984375 54.828125 56.984375 36.375 
Q 56.984375 17.96875 50.515625 8.265625 
Q 44.046875 -1.421875 31.78125 -1.421875 
Q 19.53125 -1.421875 13.0625 8.265625 
Q 6.59375 17.96875 6.59375 36.375 
Q 6.59375 54.828125 13.0625 64.515625 
Q 19.53125 74.21875 31.78125 74.21875 
z
" id="DejaVuSans-30"/>
      </defs>
      <g transform="translate(362.403494 377.994938)scale(0.1 -0.1)">
       <use xlink:href="#DejaVuSans-31"/>
       <use x="63.623047" xlink:href="#DejaVuSans-30"/>
      </g>
     </g>
    </g>
    <g id="ytick_2">
     <g id="line2d_5">
      <path clip-path="url(#p124e48d932)" d="M 369 352.730023 
L 367.4899 352.756382 
L 365.981639 352.835426 
L 362.977983 353.151123 
L 360.003666 353.675576 
L 357.073178 354.406228 
L 354.200796 355.339522 
L 351.400515 356.470909 
L 348.685976 357.794878 
L 346.070406 359.304978 
L 343.566546 360.993853 
L 341.186595 362.853274 
L 338.942148 364.874183 
L 336.84414 367.046734 
L 334.902793 369.360342 
L 333.127563 371.803736 
L 331.527101 374.365011 
L 330.109202 377.03169 
L 328.880776 379.790781 
L 327.847806 382.628842 
L 327.015326 385.532045 
L 326.387391 388.486247 
L 325.96706 391.477056 
L 325.756382 394.4899 
L 325.756382 397.5101 
L 325.96706 400.522944 
L 326.387391 403.513753 
L 327.015326 406.467955 
L 327.847806 409.371158 
L 328.880776 412.209219 
L 330.109202 414.96831 
L 331.527101 417.634989 
L 333.127563 420.196264 
L 334.902793 422.639658 
L 336.84414 424.953266 
L 338.942148 427.125817 
L 341.186595 429.146726 
L 343.566546 431.006147 
L 346.070406 432.695022 
L 348.685976 434.205122 
L 351.400515 435.529091 
L 354.200796 436.660478 
L 357.073178 437.593772 
L 360.003666 438.324424 
L 362.977983 438.848877 
L 365.981639 439.164574 
L 369 439.269977 
L 372.018361 439.164574 
L 375.022017 438.848877 
L 377.996334 438.324424 
L 380.926822 437.593772 
L 383.799204 436.660478 
L 386.599485 435.529091 
L 389.314024 434.205122 
L 391.929594 432.695022 
L 394.433454 431.006147 
L 396.813405 429.146726 
L 399.057852 427.125817 
L 401.15586 424.953266 
L 403.097207 422.639658 
L 404.872437 420.196264 
L 406.472899 417.634989 
L 407.890798 414.96831 
L 409.119224 412.209219 
L 410.152194 409.371158 
L 410.984674 406.467955 
L 411.612609 403.513753 
L 412.03294 400.522944 
L 412.243618 397.5101 
L 412.243618 394.4899 
L 412.03294 391.477056 
L 411.612609 388.486247 
L 410.984674 385.532045 
L 410.152194 382.628842 
L 409.119224 379.790781 
L 407.890798 377.03169 
L 406.472899 374.365011 
L 404.872437 371.803736 
L 403.097207 369.360342 
L 401.15586 367.046734 
L 399.057852 364.874183 
L 396.813405 362.853274 
L 394.433454 360.993853 
L 391.929594 359.304978 
L 389.314024 357.794878 
L 386.599485 356.470909 
L 383.799204 355.339522 
L 380.926822 354.406228 
L 377.996334 353.675576 
L 375.022017 353.151123 
L 372.018361 352.835426 
L 369 352.730023 
L 369 352.730023 
" style="fill:none;stroke:#b0b0b0;stroke-linecap:square;stroke-width:0.8;"/>
     </g>
     <g id="text_5">
      <!-- 50 -->
      <defs>
       <path d="M 10.796875 72.90625 
L 49.515625 72.90625 
L 49.515625 64.59375 
L 19.828125 64.59375 
L 19.828125 46.734375 
Q 21.96875 47.46875 24.109375 47.828125 
Q 26.265625 48.1875 28.421875 48.1875 
Q 40.625 48.1875 47.75 41.5 
Q 54.890625 34.8125 54.890625 23.390625 
Q 54.890625 11.625 47.5625 5.09375 
Q 40.234375 -1.421875 26.90625 -1.421875 
Q 22.3125 -1.421875 17.546875 -0.640625 
Q 12.796875 0.140625 7.71875 1.703125 
L 7.71875 11.625 
Q 12.109375 9.234375 16.796875 8.0625 
Q 21.484375 6.890625 26.703125 6.890625 
Q 35.15625 6.890625 40.078125 11.328125 
Q 45.015625 15.765625 45.015625 23.390625 
Q 45.015625 31 40.078125 35.4375 
Q 35.15625 39.890625 26.703125 39.890625 
Q 22.75 39.890625 18.8125 39.015625 
Q 14.890625 38.140625 10.796875 36.28125 
z
" id="DejaVuSans-35"/>
      </defs>
      <g transform="translate(352.441297 353.944066)scale(0.1 -0.1)">
       <use xlink:href="#DejaVuSans-35"/>
       <use x="63.623047" xlink:href="#DejaVuSans-30"/>
      </g>
     </g>
    </g>
    <g id="ytick_3">
     <g id="line2d_6">
      <path clip-path="url(#p124e48d932)" d="M 369 320.189428 
L 366.354249 320.23561 
L 363.711722 320.374099 
L 358.449208 320.927211 
L 353.238096 321.846071 
L 348.103774 323.126201 
L 343.071257 324.761365 
L 338.165062 326.743596 
L 333.409092 329.063238 
L 328.826518 331.708989 
L 324.439664 334.667959 
L 320.269904 337.925733 
L 316.337552 341.466438 
L 312.661766 345.272826 
L 309.260454 349.326351 
L 306.150188 353.607266 
L 303.346119 358.094714 
L 300.861909 362.766833 
L 298.709662 367.60086 
L 296.899862 372.573245 
L 295.441326 377.659763 
L 294.341161 382.835632 
L 293.604726 388.075637 
L 293.23561 393.354249 
L 293.23561 398.645751 
L 293.604726 403.924363 
L 294.341161 409.164368 
L 295.441326 414.340237 
L 296.899862 419.426755 
L 298.709662 424.39914 
L 300.861909 429.233167 
L 303.346119 433.905286 
L 306.150188 438.392734 
L 309.260454 442.673649 
L 312.661766 446.727174 
L 316.337552 450.533562 
L 320.269904 454.074267 
L 324.439664 457.332041 
L 328.826518 460.291011 
L 333.409092 462.936762 
L 338.165062 465.256404 
L 343.071257 467.238635 
L 348.103774 468.873799 
L 353.238096 470.153929 
L 358.449208 471.072789 
L 363.711722 471.625901 
L 369 471.810572 
L 374.288278 471.625901 
L 379.550792 471.072789 
L 384.761904 470.153929 
L 389.896226 468.873799 
L 394.928743 467.238635 
L 399.834938 465.256404 
L 404.590908 462.936762 
L 409.173482 460.291011 
L 413.560336 457.332041 
L 417.730096 454.074267 
L 421.662448 450.533562 
L 425.338234 446.727174 
L 428.739546 442.673649 
L 431.849812 438.392734 
L 434.653881 433.905286 
L 437.138091 429.233167 
L 439.290338 424.39914 
L 441.100138 419.426755 
L 442.558674 414.340237 
L 443.658839 409.164368 
L 444.395274 403.924363 
L 444.76439 398.645751 
L 444.76439 393.354249 
L 444.395274 388.075637 
L 443.658839 382.835632 
L 442.558674 377.659763 
L 441.100138 372.573245 
L 439.290338 367.60086 
L 437.138091 362.766833 
L 434.653881 358.094714 
L 431.849812 353.607266 
L 428.739546 349.326351 
L 425.338234 345.272826 
L 421.662448 341.466438 
L 417.730096 337.925733 
L 413.560336 334.667959 
L 409.173482 331.708989 
L 404.590908 329.063238 
L 399.834938 326.743596 
L 394.928743 324.761365 
L 389.896226 323.126201 
L 384.761904 321.846071 
L 379.550792 320.927211 
L 374.288278 320.374099 
L 369 320.189428 
L 369 320.189428 
" style="fill:none;stroke:#b0b0b0;stroke-linecap:square;stroke-width:0.8;"/>
     </g>
     <g id="text_6">
      <!-- 100 -->
      <g transform="translate(339.98855 323.880477)scale(0.1 -0.1)">
       <use xlink:href="#DejaVuSans-31"/>
       <use x="63.623047" xlink:href="#DejaVuSans-30"/>
       <use x="127.246094" xlink:href="#DejaVuSans-30"/>
      </g>
     </g>
    </g>
   </g>
   <g id="line2d_7">
    <path clip-path="url(#p124e48d932)" d="M 369 129.681818 
L 304.371343 433.313373 
L 379.982777 402.340909 
L 369 129.681818 
" style="fill:none;stroke:#0000ff;stroke-linecap:square;stroke-width:1.5;"/>
   </g>
   <g id="patch_4">
    <path d="M 369 117 
L 127.378912 535.5 
L 610.621088 535.5 
L 369 117 
" style="fill:none;stroke:#000000;stroke-linecap:square;stroke-linejoin:miter;stroke-width:0.8;"/>
   </g>
   <g id="text_7">
    <!-- CIII -->
    <defs>
     <path d="M 67 4 
Q 61.8125 1.3125 56.203125 -0.046875 
Q 50.59375 -1.421875 44.484375 -1.421875 
Q 26.265625 -1.421875 15.625 8.765625 
Q 4.984375 18.953125 4.984375 36.375 
Q 4.984375 53.859375 15.625 64.03125 
Q 26.265625 74.21875 44.484375 74.21875 
Q 50.59375 74.21875 56.203125 72.84375 
Q 61.8125 71.484375 67 68.796875 
L 67 53.71875 
Q 61.765625 57.28125 56.6875 58.9375 
Q 51.609375 60.59375 46 60.59375 
Q 35.9375 60.59375 30.171875 54.140625 
Q 24.421875 47.703125 24.421875 36.375 
Q 24.421875 25.09375 30.171875 18.640625 
Q 35.9375 12.203125 46 12.203125 
Q 51.609375 12.203125 56.6875 13.859375 
Q 61.765625 15.53125 67 19.09375 
z
" id="DejaVuSans-Bold-43"/>
     <path d="M 9.1875 72.90625 
L 27.984375 72.90625 
L 27.984375 0 
L 9.1875 0 
z
" id="DejaVuSans-Bold-49"/>
    </defs>
    <g transform="translate(359.75 57.959375)scale(0.1 -0.1)">
     <use xlink:href="#DejaVuSans-Bold-43"/>
     <use x="73.388672" xlink:href="#DejaVuSans-Bold-49"/>
     <use x="110.595703" xlink:href="#DejaVuSans-Bold-49"/>
     <use x="147.802734" xlink:href="#DejaVuSans-Bold-49"/>
    </g>
   </g>
   <g id="legend_1">
    <g id="patch_5">
     <path d="M 594.6 144.9 
L 661.606875 144.9 
Q 664.006875 144.9 664.006875 142.5 
L 664.006875 126.08625 
Q 664.006875 123.68625 661.606875 123.68625 
L 594.6 123.68625 
Q 592.2 123.68625 592.2 126.08625 
L 592.2 142.5 
Q 592.2 144.9 594.6 144.9 
z
" style="fill:#ffffff;opacity:0.8;stroke:#cccccc;stroke-linejoin:miter;"/>
    </g>
    <g id="line2d_8">
     <path d="M 597 133.404375 
L 621 133.404375 
" style="fill:none;stroke:#0000ff;stroke-linecap:square;stroke-width:1.5;"/>
    </g>
    <g id="line2d_9"/>
    <g id="text_8">
     <!-- base -->
     <defs>
      <path d="M 48.6875 27.296875 
Q 48.6875 37.203125 44.609375 42.84375 
Q 40.53125 48.484375 33.40625 48.484375 
Q 26.265625 48.484375 22.1875 42.84375 
Q 18.109375 37.203125 18.109375 27.296875 
Q 18.109375 17.390625 22.1875 11.75 
Q 26.265625 6.109375 33.40625 6.109375 
Q 40.53125 6.109375 44.609375 11.75 
Q 48.6875 17.390625 48.6875 27.296875 
z
M 18.109375 46.390625 
Q 20.953125 51.265625 25.265625 53.625 
Q 29.59375 56 35.59375 56 
Q 45.5625 56 51.78125 48.09375 
Q 58.015625 40.1875 58.015625 27.296875 
Q 58.015625 14.40625 51.78125 6.484375 
Q 45.5625 -1.421875 35.59375 -1.421875 
Q 29.59375 -1.421875 25.265625 0.953125 
Q 20.953125 3.328125 18.109375 8.203125 
L 18.109375 0 
L 9.078125 0 
L 9.078125 75.984375 
L 18.109375 75.984375 
z
" id="DejaVuSans-62"/>
      <path d="M 34.28125 27.484375 
Q 23.390625 27.484375 19.1875 25 
Q 14.984375 22.515625 14.984375 16.5 
Q 14.984375 11.71875 18.140625 8.90625 
Q 21.296875 6.109375 26.703125 6.109375 
Q 34.1875 6.109375 38.703125 11.40625 
Q 43.21875 16.703125 43.21875 25.484375 
L 43.21875 27.484375 
z
M 52.203125 31.203125 
L 52.203125 0 
L 43.21875 0 
L 43.21875 8.296875 
Q 40.140625 3.328125 35.546875 0.953125 
Q 30.953125 -1.421875 24.3125 -1.421875 
Q 15.921875 -1.421875 10.953125 3.296875 
Q 6 8.015625 6 15.921875 
Q 6 25.140625 12.171875 29.828125 
Q 18.359375 34.515625 30.609375 34.515625 
L 43.21875 34.515625 
L 43.21875 35.40625 
Q 43.21875 41.609375 39.140625 45 
Q 35.0625 48.390625 27.6875 48.390625 
Q 23 48.390625 18.546875 47.265625 
Q 14.109375 46.140625 10.015625 43.890625 
L 10.015625 52.203125 
Q 14.9375 54.109375 19.578125 55.046875 
Q 24.21875 56 28.609375 56 
Q 40.484375 56 46.34375 49.84375 
Q 52.203125 43.703125 52.203125 31.203125 
z
" id="DejaVuSans-61"/>
      <path d="M 44.28125 53.078125 
L 44.28125 44.578125 
Q 40.484375 46.53125 36.375 47.5 
Q 32.28125 48.484375 27.875 48.484375 
Q 21.1875 48.484375 17.84375 46.4375 
Q 14.5 44.390625 14.5 40.28125 
Q 14.5 37.15625 16.890625 35.375 
Q 19.28125 33.59375 26.515625 31.984375 
L 29.59375 31.296875 
Q 39.15625 29.25 43.1875 25.515625 
Q 47.21875 21.78125 47.21875 15.09375 
Q 47.21875 7.46875 41.1875 3.015625 
Q 35.15625 -1.421875 24.609375 -1.421875 
Q 20.21875 -1.421875 15.453125 -0.5625 
Q 10.6875 0.296875 5.421875 2 
L 5.421875 11.28125 
Q 10.40625 8.6875 15.234375 7.390625 
Q 20.0625 6.109375 24.8125 6.109375 
Q 31.15625 6.109375 34.5625 8.28125 
Q 37.984375 10.453125 37.984375 14.40625 
Q 37.984375 18.0625 35.515625 20.015625 
Q 33.0625 21.96875 24.703125 23.78125 
L 21.578125 24.515625 
Q 13.234375 26.265625 9.515625 29.90625 
Q 5.8125 33.546875 5.8125 39.890625 
Q 5.8125 47.609375 11.28125 51.796875 
Q 16.75 56 26.8125 56 
Q 31.78125 56 36.171875 55.265625 
Q 40.578125 54.546875 44.28125 53.078125 
z
" id="DejaVuSans-73"/>
     </defs>
     <g transform="translate(630.6 137.604375)scale(0.12 -0.12)">
      <use xlink:href="#DejaVuSans-62"/>
      <use x="63.476562" xlink:href="#DejaVuSans-61"/>
      <use x="124.755859" xlink:href="#DejaVuSans-73"/>
      <use x="176.855469" xlink:href="#DejaVuSans-65"/>
     </g>
    </g>
   </g>
  </g>
 </g>
 <defs>
  <clipPath id="p124e48d932">
   <path d="M 369 117 
L 127.378912 535.5 
L 610.621088 535.5 
z
"/>
  </clipPath>
 </defs>
</svg>
